<svg xmlns="http://www.w3.org/2000/svg" viewBox="0 0 74.81 81.21"><defs><style>.cls-1{fill:#74b1e1;}</style></defs><title>Asset 4</title><g id="Layer_2" data-name="Layer 2"><g id="Layer_1-2" data-name="Layer 1"><path class="cls-1" d="M56.6,0a2.11,2.11,0,0,1,1.14,2.14q0,18.6,0,37.19v1h14.9c1.66,0,2.19.53,2.19,2.18v7.06c0,1.69-.49,2.18-2.16,2.18h-1V79c0,1.77-.49,2.25-2.26,2.25h-33c-1.81,0-2.27-.46-2.27-2.31,0-1.22,0-2.43,0-3.65,0,0,0-.09-.09-.23H2.28C.51,75,0,74.52,0,72.76Q0,37.51,0,2.27A2.35,2.35,0,0,1,1.09,0ZM3.23,3.2V71.79H34.07v-20h-1c-1.64,0-2.15-.51-2.15-2.12,0-2.33,0-4.65,0-7,0-1.85.47-2.32,2.36-2.32H54.5V3.2ZM68.4,78V51.82H37.35V78ZM34.16,48.53H71.58V43.59H34.16Z"/><path class="cls-1" d="M28.86,23.19H12c-1.67,0-2.15-.5-2.15-2.19V12.28c0-1.5.55-2.06,2.06-2.06h34c1.49,0,2,.53,2,2q0,4.52,0,9c0,1.38-.53,1.92-1.91,1.92ZM13.05,20H44.67V13.47H13.05Z"/><path class="cls-1" d="M28.93,34H12.12c-.26,0-.52,0-.79,0a1.58,1.58,0,0,1-1.49-1.48,1.6,1.6,0,0,1,1.32-1.64,5,5,0,0,1,.87,0H45.71a4.3,4.3,0,0,1,.95.06,1.53,1.53,0,0,1,1.23,1.68,1.48,1.48,0,0,1-1.45,1.41c-.87.05-1.74,0-2.61,0Z"/><path class="cls-1" d="M18.06,44.12H11.72c-1.15,0-1.88-.61-1.88-1.56A1.65,1.65,0,0,1,11.71,41q6.33,0,12.67,0c1.14,0,1.89.64,1.89,1.58s-.73,1.58-1.87,1.58Z"/><path class="cls-1" d="M18.07,60.86c2.19,0,4.38,0,6.57,0a1.55,1.55,0,0,1,1.63,1.49A1.59,1.59,0,0,1,24.77,64,7,7,0,0,1,24,64H11.63a1.65,1.65,0,0,1-1.79-1.61c0-.93.71-1.55,1.81-1.56Z"/><path class="cls-1" d="M21.64,54.28c-.95,0-1.9,0-2.85,0a1.57,1.57,0,0,1-1.68-1.52,1.6,1.6,0,0,1,1.66-1.64c1.95,0,3.9,0,5.85,0a1.59,1.59,0,0,1,1.65,1.57,1.6,1.6,0,0,1-1.71,1.58H21.64Z"/><path class="cls-1" d="M11.44,51.11A1.59,1.59,0,0,1,13,52.69a1.58,1.58,0,1,1-3.15,0A1.63,1.63,0,0,1,11.44,51.11Z"/><path class="cls-1" d="M53.35,61.72h8.17c1.49,0,2,.56,2,2.08v7c0,1.46-.57,2.06-2,2.06q-8.17,0-16.34,0c-1.43,0-2-.56-2-2,0-2.43,0-4.87,0-7.3,0-1.37.55-1.92,1.92-1.93Zm-6.88,7.94H60.33V64.94H46.47Z"/></g></g></svg>