<svg xmlns="http://www.w3.org/2000/svg" viewBox="0 0 107.07 90.32"><defs><style>.cls-1{fill:#74b1e1;}</style></defs><title>Asset 5</title><g id="Layer_2" data-name="Layer 2"><g id="Layer_1-2" data-name="Layer 1"><path class="cls-1" d="M32.21,17.5c-3.57,0-6.95,0-10.34,0a1.34,1.34,0,0,0-.82.49,7.48,7.48,0,0,1-3.87,2.39c-.6.14-.76.43-.75,1,0,2.08,0,4.17,0,6.26A3.63,3.63,0,0,0,16.83,29q6.66,14.4,13.33,28.8a4.49,4.49,0,0,1,.48,2A15.34,15.34,0,0,1,0,60.25a5.34,5.34,0,0,1,.46-2.46c4.39-9.55,8.84-19.07,13.24-28.61A5.89,5.89,0,0,0,14.17,27c.07-1.78,0-3.56.05-5.34a1.12,1.12,0,0,0-1-1.33,7.49,7.49,0,0,1-5.3-8.87,7.58,7.58,0,0,1,8.68-5.79A7.89,7.89,0,0,1,20.86,8a2.41,2.41,0,0,0,1.47.67c3,.06,6.09,0,9.14,0a1.39,1.39,0,0,0,1.46-.81,5.05,5.05,0,0,1,6.73-2.1l.71.34c2.44-3.85,4.35-4.49,8.24-2.73,1-2.17,2.66-3.55,5.19-3.41s4,1.59,4.84,3.93a5.38,5.38,0,0,1,5.49-.16,5.51,5.51,0,0,1,2.7,4.87c.4,0,.77.06,1.13.06,5.55,0,11.1,0,16.65,0A2,2,0,0,0,86.28,8a7.46,7.46,0,0,1,8.38-1.84,7.59,7.59,0,0,1,4.63,7.44,7.44,7.44,0,0,1-5.44,6.75c-.79.22-.9.59-1,1.34-.53,4.67.89,8.8,2.94,12.94,3.74,7.58,7.15,15.33,10.76,23a6.63,6.63,0,0,1,.33,4.2,15.36,15.36,0,0,1-30.46-1.71,4.75,4.75,0,0,1,.43-2.16q6.67-14.51,13.43-29a2.64,2.64,0,0,0,.31-1c0-2.26,0-4.52,0-6.78a1,1,0,0,0-.62-.73,8.42,8.42,0,0,1-4-2.52,1.56,1.56,0,0,0-1.06-.43c-3,0-6.09,0-9.14,0-.76,0-.91.28-.91,1,0,4.14,0,8.29,0,12.43a7,7,0,0,1-2.2,5.33c-2.83,2.78-5.6,5.63-8.44,8.41a2.3,2.3,0,0,0-.85,2.06,6.84,6.84,0,0,1,0,1.43A1.39,1.39,0,0,0,64,49.5a2.86,2.86,0,0,1,1,2.56q0,10.63,0,21.27v15c0,1.69-.29,2-1.94,2H36.85c-1.83,0-2.06-.23-2.06-2.07q0-18,0-36a3.25,3.25,0,0,1,1.31-3.05c.16-.11.22-.38.31-.59s0-.2,0-.3a6,6,0,0,0-1.33-4.62,13.73,13.73,0,0,1-2.86-8.93q0-8,0-15.92ZM62.72,88V87q0-17.37,0-34.72c0-1-.35-1.21-1.25-1.21-7.67,0-15.34,0-23,0C37,51.1,37,51.1,37,52.59V88Zm-5.33-70.4a5.92,5.92,0,0,0,4.1,5.07,19.57,19.57,0,0,0,3.84.46c1.06.08,1.42.38,1.44,1.44,0,1.78,0,3.56,0,5.34,0,.74-.26,1.33-1.07,1.35s-1.16-.57-1.16-1.36c0-1.17-.05-2.33,0-3.5,0-.79-.22-1.06-1-1.07A8.41,8.41,0,0,1,57,22.14c-.44-.52-.76-.48-1.29-.23a5,5,0,0,1-4.56-.09l-.76-.35c-1.06,2.22-2.67,3.54-5.17,3.42s-4-1.67-4.89-4a5.39,5.39,0,0,1-5.74.11,2.57,2.57,0,0,0-.1.48c0,4.8-.06,9.59.06,14.38a11.51,11.51,0,0,0,3,7.38,2,2,0,0,0,1.38.62q11,.06,22.09,0a2.09,2.09,0,0,0,1.33-.55c3-2.9,5.87-5.85,8.81-8.76A4.73,4.73,0,0,0,72.61,31c0-4.14,0-8.29,0-12.43,0-.33,0-.65-.07-1ZM104.24,58C100.07,49,96,40.18,91.77,31.11L79.3,58ZM15.31,31.11,2.85,57.93H27.76ZM78.68,60.3c.65,4.89,3,8.5,7.3,10.58,5.07,2.44,9.93,1.78,14.28-1.77a12.6,12.6,0,0,0,4.57-8.81Zm-76.35,0A12.94,12.94,0,0,0,16.08,72.24C22.61,71.85,29,65.5,28.19,60.3Zm46-46.55h0c0-2,0-4,0-6a2.9,2.9,0,1,0-5.79,0q0,5.91,0,11.8A3.82,3.82,0,0,0,43,21.26,2.86,2.86,0,0,0,48.32,20C48.38,17.92,48.34,15.83,48.34,13.75Zm8.1,1.39c0-3.42.06-6.8,0-10.19a2.81,2.81,0,0,0-2.92-2.72A2.85,2.85,0,0,0,50.63,5c-.06,4.11-.07,8.22,0,12.32a2.87,2.87,0,0,0,3.26,2.79c1.24-.16,1.49-.52,1.22-1.73a10.73,10.73,0,0,1-.19-1.11C54.76,15.86,55,15.57,56.44,15.14Zm-35.84-2a5.3,5.3,0,1,0-5.35,5.25A5.3,5.3,0,0,0,20.6,13.18ZM91.83,7.83A5.3,5.3,0,1,0,97,13.19,5.29,5.29,0,0,0,91.83,7.83Zm-7.51,3.23a1,1,0,0,0-.27-.07c-5.51,0-11,0-16.54,0-.61,0-.75.29-.73.82a16.89,16.89,0,0,1,0,2.36c-.09.94.3,1.15,1.17,1.14,5.13,0,10.27,0,15.41,0,.33,0,.66,0,1-.06ZM34.48,13.54h0c0,1.06-.05,2.12,0,3.18a2.91,2.91,0,0,0,3,2.82,2.87,2.87,0,0,0,2.84-2.82c.06-2.12.07-4.25,0-6.37a2.86,2.86,0,0,0-3-2.81,2.89,2.89,0,0,0-2.84,2.92C34.45,11.48,34.48,12.51,34.48,13.54Zm26.57,32.7H38.73v2.54H61.05ZM58.71,11.38c0,1.06,0,2.13,0,3.18,0,.25.37.68.59.68,1.54.06,3.08,0,4.62,0a.79.79,0,0,0,.54-.54c0-2.25.1-4.52,0-6.77a2.78,2.78,0,0,0-2.93-2.59A2.88,2.88,0,0,0,58.72,8.2C58.67,9.26,58.71,10.32,58.71,11.38ZM32.14,15.23V11.06h-9.4v4.17Z"/></g></g></svg>