<svg xmlns="http://www.w3.org/2000/svg" viewBox="0 0 96.74 86.9"><defs><style>.cls-1{fill:#74b1e1;}</style></defs><title>Asset 6</title><g id="Layer_2" data-name="Layer 2"><g id="Layer_1-2" data-name="Layer 1"><path class="cls-1" d="M0,53.26c.37-1.84.6-3.72,1.12-5.51a26.08,26.08,0,0,1,8.93-13,35.75,35.75,0,0,1,20.36-8.12c.79-.06,1.1-.3,1.19-1.15a25.57,25.57,0,0,1,8.12-16.1C47.69,1.8,57.27-1,68.06.29A34.73,34.73,0,0,1,86,7.64c7.49,6,11.56,13.59,10.6,23.41a23.68,23.68,0,0,1-5.73,13.53c-1.82,2.08-2,4.23-1.55,6.64a11.31,11.31,0,0,0,2.83,5.67A3.29,3.29,0,0,1,93,58.43c.2,1.16-.8,2-2.17,2a20.33,20.33,0,0,1-13.06-5A2.41,2.41,0,0,0,75.31,55c-2.85.6-5.73,1.1-8.62,1.51-1,.13-1.4.33-1.54,1.44A26.41,26.41,0,0,1,54.82,75.74C47,81.88,38.11,84,28.37,82.77c-2.52-.32-5-1-7.48-1.51a1.43,1.43,0,0,0-1.42.36A20.73,20.73,0,0,1,6.24,86.9,2.1,2.1,0,0,1,4,85.85a2,2,0,0,1,.59-2.47,11.15,11.15,0,0,0,3-9.39,3.77,3.77,0,0,0-.8-1.84A26.69,26.69,0,0,1,.15,57.29c0-.21-.1-.42-.15-.63ZM9.78,82.58a16.28,16.28,0,0,0,7.9-4.5,2.89,2.89,0,0,1,3.4-.74A35.76,35.76,0,0,0,37.75,79c8.41-1.21,15.34-5,20.15-12.13a20.86,20.86,0,0,0,3-17.41c-1.78-7-6.25-12-12.48-15.39a30.89,30.89,0,0,0-19.82-3.5c-8.63,1.27-15.86,5.05-21,12.29A20.18,20.18,0,0,0,4.44,59.92,23.56,23.56,0,0,0,10,70.1a4.43,4.43,0,0,1,1,1.76A15.1,15.1,0,0,1,9.78,82.58ZM55.11,34c6,5.08,9.49,11.2,10.22,18.81a33.45,33.45,0,0,0,9.1-1.48c3.63-1.17,3.09-1.05,5.69,1.26A15.73,15.73,0,0,0,87,56.1a15.76,15.76,0,0,1-1.56-9,6.91,6.91,0,0,1,1.67-3.9,22.69,22.69,0,0,0,3-4.12,20.52,20.52,0,0,0,2-16.65A23.94,23.94,0,0,0,81.76,9.21,32,32,0,0,0,53.31,5.43,26,26,0,0,0,37.16,19.3a19.59,19.59,0,0,0-1.86,7.1c.34.06.61.13.89.15a35.16,35.16,0,0,1,12.59,3.38,3.26,3.26,0,0,0,1.36.25q14.36,0,28.72,0a9,9,0,0,1,1,0,1.87,1.87,0,0,1,0,3.73A7.38,7.38,0,0,1,79,34H55.11Z"/><path class="cls-1" d="M32.64,64.22H17.8a7.38,7.38,0,0,1-.94,0,1.87,1.87,0,0,1,0-3.73,6,6,0,0,1,.85,0H47.61c1.72,0,2.64.65,2.66,1.86s-.92,1.92-2.7,1.92Z"/><path class="cls-1" d="M36.48,52.88H25.23A4.88,4.88,0,0,1,24,52.75a1.84,1.84,0,0,1,0-3.52,4.4,4.4,0,0,1,1.21-.12H47.74a5.05,5.05,0,0,1,1,.08,1.85,1.85,0,0,1,0,3.63,5.15,5.15,0,0,1-1,.07Z"/><path class="cls-1" d="M17.05,49.12A1.88,1.88,0,1,1,15.14,51,1.93,1.93,0,0,1,17.05,49.12Z"/><path class="cls-1" d="M67.87,18.85H79.11a4,4,0,0,1,1.3.16,1.82,1.82,0,0,1,0,3.45,4.57,4.57,0,0,1-1.39.16q-11.14,0-22.3,0h-.19c-1.54,0-2.45-.71-2.45-1.89s.91-1.88,2.45-1.89Z"/><path class="cls-1" d="M50.27,20.71a1.88,1.88,0,1,1-1.91-1.84A1.94,1.94,0,0,1,50.27,20.71Z"/></g></g></svg>