<svg xmlns="http://www.w3.org/2000/svg" viewBox="0 0 98.52 108.83"><defs><style>.cls-1{fill:#74b1e1;}</style></defs><title>Asset 7</title><g id="Layer_2" data-name="Layer 2"><g id="Layer_1-2" data-name="Layer 1"><path class="cls-1" d="M82.83,72.77a4.62,4.62,0,0,1-1.63-.93l-.35-.26,1.85-2c.3.27.6.51.87.72.59.48,1.11.89,1.15,1.22a1,1,0,0,1-.26,1A1.84,1.84,0,0,1,82.83,72.77Z"/><path class="cls-1" d="M79.14,93.38a6,6,0,0,1-2-.09A3.1,3.1,0,0,1,76,92.35l-.27-.28L76,91.8c.33-.37.7-.77,1-.8a35.61,35.61,0,0,1,6.45,0c.27,0,.65.44,1,.81l.27.3-.23.27a2.62,2.62,0,0,1-1,.87,7.56,7.56,0,0,1-2.2.1c-.36,0-.7,0-1,0h-.46v0Z"/><path class="cls-1" d="M76.1,79.72a24.52,24.52,0,0,1-3.93-.1c-.38-.05-.82-.49-1.24-.9l-.3-.3.33-.31c.4-.41.85-.86,1.2-.88,3.54-.16,7.24-.16,11,0,.31,0,.75.45,1.13.83l.3.29-.31.32c-.41.44-.83.89-1.21.94a21.4,21.4,0,0,1-3.76.11l-1.57,0h0Z"/><path class="cls-1" d="M67.14,63.88c.36-.43,1.42-.44,1.77-.44h7l2,0a42.55,42.55,0,0,1,4.79.09,3.05,3.05,0,0,1,2,1.18.94.94,0,0,1-.14.82,2.55,2.55,0,0,1-1.87.52h-.56c-4.34,0-8.81.1-13.21-.07A2.69,2.69,0,0,1,67,64.6C66.94,64.12,67.09,63.94,67.14,63.88Z"/><path class="cls-1" d="M66.31,31.86l.31.65c1.09,2.27,2.72,3.41,4.86,3.41a8,8,0,0,0,.83-.05c2.3-.3,3.66-1.42,4.14-3.45l.13-.56ZM71.6,15.29,66.69,29h9.9ZM49.33,48.11l.33-.47c1.2-1.7,1.12-32.84-.08-34.71l-.42-.66v-2.1c11.68,0,23.42-.37,24.64-1.09l1-.59,1.09,0a15.13,15.13,0,0,1-.55,2.62l-.12.45c-.06.21-.41.47-.76.72a5.56,5.56,0,0,0-.66.54l-.23.19,5.51,15.28a6.91,6.91,0,0,1-1.73,7.82,7.68,7.68,0,0,1-8.69,1.8,7.14,7.14,0,0,1-5-6.57,10.5,10.5,0,0,1,.74-3.77C65.59,24.27,66.78,21,68,17.54l1.43-3.94.22-.6H53.38V50.48H49.33Z"/><path class="cls-1" d="M66.73,84.06c5.58-.12,11.1-.11,16.39.06.31,0,.77.51,1.14.91l.31.34-.33.27a3,3,0,0,1-1.35.83c-1.93.13-3.91.11-5.82.09l-2.24,0c-.73,0-1.48,0-2.21,0-1.85,0-3.77,0-5.64-.1-.37,0-.82-.46-1.26-.88l-.34-.32.3-.32C66,84.55,66.46,84.07,66.73,84.06Z"/><path class="cls-1" d="M58.8,66a2.59,2.59,0,0,1-1.11-.15,2.51,2.51,0,0,1-1-1,2,2,0,0,1,1.1-1.23,8.15,8.15,0,0,1,3.36,0,2.5,2.5,0,0,1,1.19.86,2.54,2.54,0,0,1-1.19,1.49,2,2,0,0,1-1,0c-.24,0-.47,0-.69,0H59V66Z"/><path class="cls-1" d="M58.7,87.22l-1.87-2L57.2,85a4.17,4.17,0,0,1,1.6-1,1.94,1.94,0,0,1,1.64.32,1,1,0,0,1,.28,1c0,.32-.57.73-1.15,1.18C59.3,86.72,59,87,58.7,87.22Z"/><path class="cls-1" d="M58.63,72.82c-1.5,0-2-.29-2-1.23a1.23,1.23,0,0,1,.29-.91,2.29,2.29,0,0,1,1.6-.4H75.89c1.33,0,1.93.18,2,1.24a1.27,1.27,0,0,1-.28.92,2.4,2.4,0,0,1-1.59.38H73.49Q66.05,72.84,58.63,72.82Z"/><path class="cls-1" d="M60.19,79.68a8.62,8.62,0,0,1-2.4-.1,1.89,1.89,0,0,1-1.1-1.14,1.93,1.93,0,0,1,1-1.17,48.48,48.48,0,0,1,7.13,0,1.87,1.87,0,0,1,1,1.16,1.87,1.87,0,0,1-1.06,1.16,8.25,8.25,0,0,1-2.4.09h-.63l-.45,0C60.91,79.65,60.55,79.67,60.19,79.68Z"/><path class="cls-1" d="M38.89,86.5c-.55-.48-1-.91-1.07-1.23a1,1,0,0,1,.17-.76c.17-.19.58-.39,1.53-.39h.3c.69,0,1.55,0,1.86.4a.92.92,0,0,1,.15.74c0,.31-.61.75-1.22,1.21-.29.22-.61.47-.94.74C39.4,87,39.13,86.71,38.89,86.5Z"/><path class="cls-1" d="M37.79,63.47a1.64,1.64,0,0,1,.8-.06,4.34,4.34,0,0,0,.51,0c.2,0,.4,0,.61,0a2,2,0,0,1,.92.08,2.56,2.56,0,0,1,1.2,1.32,1.75,1.75,0,0,1-.9,1,7.36,7.36,0,0,1-3.31.12,2.8,2.8,0,0,1-1.1-.94l-.26-.3.21-.19A8.36,8.36,0,0,1,37.79,63.47Z"/><path class="cls-1" d="M33.8,77.27a39.63,39.63,0,0,1,6.89,0c.21,0,.58.54.83.88l.25.36-.27.26a2.89,2.89,0,0,1-1.14.85,7.6,7.6,0,0,1-2.2.08c-.36,0-.7,0-1,0s-.65,0-1,0a6.82,6.82,0,0,1-2-.09A3,3,0,0,1,33,78.78l-.26-.27.26-.36C33.23,77.83,33.61,77.29,33.8,77.27Z"/><path class="cls-1" d="M29.25,93.35c-.38,0-.83-.5-1.24-.92l-.32-.3.29-.3c.37-.38.79-.81,1.08-.82,3.74-.16,7.51-.16,11.22,0,.32,0,.75.44,1.13.82l.3.28-.31.32c-.42.43-.87.88-1.25.93a23.65,23.65,0,0,1-3.95.11c-.53,0-1.08,0-1.62,0l-1.6,0A22.09,22.09,0,0,1,29.25,93.35Z"/><path class="cls-1" d="M22.25,8.5a3.93,3.93,0,0,1,.39-1.22c.78-1.52,2.09-2.2,4.26-2.2H27q6.3,0,12.64,0H45l.08-.35C45.68,2,46.34,0,49.17,0h.08c2.86,0,3.53,2,4.17,4.75l.08.35H72.23c.93,0,3.14.23,3.58,2.27a4.8,4.8,0,0,1,.08,1.15l-1.09,0-1.15-.24c-.44-.09-.81-.18-1.14-.26A6.48,6.48,0,0,0,71,7.72c-15.42,0-29.6,0-43.38,0A5.71,5.71,0,0,0,26,8c-.29.09-.6.18-.95.26l-1,.25Z"/><path class="cls-1" d="M21.73,32l.31.64a5.06,5.06,0,0,0,4.81,3.29h.43a4.76,4.76,0,0,0,4.57-3.32l.22-.6ZM22,29H32L27,15.32Zm.12,8c-2.83-2.09-3.87-5.16-2.78-8.21,1.63-4.6,3.31-9.13,4.88-13.34.41-1.11.72-2.31-.55-3.51A3.94,3.94,0,0,1,22.25,8.5L24,8.55l.86.58c1.05.69,12.4,1,23.9,1h.37v2.1L48.8,13c-1.15,2.2-1,33.34.15,34.71l.38.45v2.37H44.22V48.06h.92V13H29l.46,1.47c.17.56.34,1.07.53,1.58.55,1.54,1.11,3.07,1.68,4.61,1,2.7,2,5.4,2.94,8.12A7.29,7.29,0,0,1,31.75,37,8,8,0,0,1,22.16,36.92Z"/><path class="cls-1" d="M40.11,72.83c-5.94.13-11.93.12-17.79,0-.3,0-.75-.52-1.12-.92-.11-.12-.21-.25-.33-.37l.33-.3c.43-.42.88-.85,1.23-.87,2.17-.14,4.39-.12,6.53-.09H40a2.23,2.23,0,0,1,1.67.46.88.88,0,0,1,.14.77A2.46,2.46,0,0,1,40.11,72.83Z"/><path class="cls-1" d="M15.36,77.25c3.55-.17,7.33-.18,11.22,0,.27,0,.68.48,1,.85l.28.32-.32.32a2.84,2.84,0,0,1-1.24.89,25.74,25.74,0,0,1-3.93.1c-.55,0-1.09,0-1.64,0s-1.05,0-1.57,0a24.89,24.89,0,0,1-3.77-.1,2.81,2.81,0,0,1-1.23-.82l-.29-.26q.16-.17.33-.36C14.59,77.78,15.05,77.26,15.36,77.25Z"/><path class="cls-1" d="M13.93,71.5,16,69.6c.26.28.52.53.76.77.52.51,1,1,1,1.29a1.09,1.09,0,0,1-.36,1,2,2,0,0,1-1.67.21,4.1,4.1,0,0,1-1.49-1Z"/><path class="cls-1" d="M30,65.94c-4.86.16-9.77.16-14.6,0-.3,0-.76-.52-1.13-.94-.11-.11-.21-.23-.32-.35l.33-.27a3,3,0,0,1,1.33-.84,48.84,48.84,0,0,1,5.13-.09l1.59,0h2.46c1.69,0,3.44-.05,5.14.09.35,0,.77.42,1.18.8l.3.27-.33.37C30.7,65.41,30.26,65.93,30,65.94Z"/><path class="cls-1" d="M15.78,86.55c-1.44,0-2-.3-2-1.19a1.09,1.09,0,0,1,.23-.85,2.44,2.44,0,0,1,1.67-.4h0c1.43,0,2.86,0,4.29,0,3.78,0,7.67,0,11.51.08a2.55,2.55,0,0,1,1.76,1.14.9.9,0,0,1-.16.77,2.26,2.26,0,0,1-1.69.45c-1.94,0-3.88,0-5.83,0H21C19.27,86.53,17.53,86.53,15.78,86.55Z"/><path class="cls-1" d="M14.9,91.05a49.22,49.22,0,0,1,7.08,0,1.87,1.87,0,0,1,.92,1.12,1.84,1.84,0,0,1-1.12,1.08,9.39,9.39,0,0,1-2.39.09q-.54,0-1.08,0h-.44v0c-.2,0-.39,0-.59,0a7.49,7.49,0,0,1-2.19-.1c-.32-.08-.65-.5-1-.9l-.24-.31.24-.29C14.35,91.52,14.71,91.06,14.9,91.05Z"/><path class="cls-1" d="M51.21,106.13H95.73l0-.41c0-.22,0-.41,0-.57a6.73,6.73,0,0,0,.06-.83q0-18.88,0-37.74a1.93,1.93,0,0,1,0-.24,1.73,1.73,0,0,0-.1-.86,2.87,2.87,0,0,0-.58-.73,2.61,2.61,0,0,1-.23-.24l-.35-.4-.34.41a1.79,1.79,0,0,1-.22.25,1.82,1.82,0,0,0-.57.87,6.64,6.64,0,0,0-.07,1.4c0,.16,0,.32,0,.49V99.4c0,2.44-.08,2.51-2.53,2.52H69.69q-6.35,0-12.67,0c-3.24,0-4.83,1-5.63,3.63Zm5.91-48.68c-4.65,0-6.55,1.94-6.55,6.68V98.27c0,.5,0,1,.08,1.31l.05.7.46,0c.84-.08,1.65-.18,2.45-.28a41.2,41.2,0,0,1,5-.43c7-.06,14.18,0,21.09,0h11V57.59l-.43,0-.78-.06c-.51,0-1-.06-1.41-.06h-.95Q72.13,57.45,57.12,57.45ZM11,99.49h7.81c6.78,0,13.78,0,20.66,0a49.16,49.16,0,0,1,5.3.44l2.65.29.49,0V89.73c0-8.48,0-17,0-25.61,0-4.73-2-6.66-6.82-6.67q-15.24,0-30.51,0c-.5,0-1,0-1.54.06l-.81.05-.43,0V99.49Zm-8.27,9.33c-2.75,0-2.75,0-2.75-2.75V65.16c0-1.72,0-2.66.35-3s1.34-.4,3.11-.47a4.58,4.58,0,0,0,.67-.06l.94-.11V59.85c0-.94,0-1.87,0-2.79a2.28,2.28,0,0,1,.42-1.71,2.34,2.34,0,0,1,1.69-.49h.09c5.08.08,10.24.06,15.24,0h6.19l.08-.36c.1-.48.17-.94.24-1.39a11.51,11.51,0,0,1,.54-2.34,4.28,4.28,0,0,1,4.36-2.76H44.22v2.42l-9.48,0a3.18,3.18,0,0,0-2.47.73c-.56.64-.57,1.62-.41,3l0,.31.31.08a23.86,23.86,0,0,0,6.09.24c3.93-.18,7.63-.34,10.64,3.08l.33.38.34-.37c3.16-3.41,6.85-3.25,10.76-3.07a22.83,22.83,0,0,0,5.9-.24l.31-.06,0-.31c.2-1.38.21-2.36-.34-3s-1.53-.78-2.84-.79c-3.28,0-6.62,0-10.06,0V48.05h9c5.68,0,6.44.67,7.35,6.47l.06.38H90.62c2.81,0,2.81,0,2.82,2.93v3.26l.22.13.25.17a1,1,0,0,0,.53.23h.37c1.89,0,2.93.06,3.32.48s.39,1.52.39,3.51v.3q0,13.9,0,27.81v12.42c0,2.63-.05,2.67-2.62,2.67Q49.33,108.84,2.75,108.82ZM2.63,67.19v38.94h45l-.26-.62c-1.29-3.15-3.78-3.58-6.27-3.58H7.87c-2.8,0-2.8,0-2.8-2.9V66.93A7.94,7.94,0,0,0,5,65.48a1.4,1.4,0,0,0-.53-.77,1.21,1.21,0,0,1-.2-.19L4,64.17l-.34.33a2.73,2.73,0,0,1-.25.2,1.58,1.58,0,0,0-.66.8,3.91,3.91,0,0,0-.08,1.27C2.62,66.91,2.63,67.06,2.63,67.19Z"/></g></g></svg>