<svg xmlns="http://www.w3.org/2000/svg" viewBox="0 0 81.64 101.58"><defs><style>.cls-1{fill:#74b1e1;}</style></defs><title>Asset 19</title><g id="Layer_2" data-name="Layer 2"><g id="Layer_1-2" data-name="Layer 1"><path class="cls-1" d="M14.44,0c1.8.59,3.62,1.16,5.41,1.79a6.27,6.27,0,0,1,1.36.81,1.48,1.48,0,1,1-1.63,2.47,12.83,12.83,0,0,0-5.43-2C13.76,3,13.36,3,12.75,3c.33.37.52.61.74.83l6.1,6.1c2,2,2,4.12,0,6.08l-3.79,3.79a3.8,3.8,0,0,1-5.78,0c-2.3-2.28-4.58-4.58-7.12-6.8.12.88.19,1.76.39,2.62a12.34,12.34,0,0,0,14,9.32A3.15,3.15,0,0,1,20.52,26a1,1,0,0,0,1.43.32A6.33,6.33,0,0,1,26,25.92a.93.93,0,0,0,1.14-.47c.49-.7,1-1.36,1.67-2.17-.94-.92-1.86-1.85-2.82-2.74a3.39,3.39,0,0,1-1.12-3.29,12,12,0,0,0-1-7.25c-.51-1.08-.29-1.86.56-2.28a1.49,1.49,0,0,1,2.08.92,15,15,0,0,1,1.4,8.68,1.45,1.45,0,0,0,.49,1.38c.78.76,1.51,1.58,2.31,2.43l1.4-1.59a6.13,6.13,0,0,1,6.79-2.05,5.89,5.89,0,0,1,4.38,5.32c0,.12.07.25.1.36,5,.53,6.34,1.64,7.37,6.15a6.56,6.56,0,0,1,5,1.38A6.25,6.25,0,0,1,58,35.23a22.72,22.72,0,0,1,2.59.3A6.19,6.19,0,0,1,65,43.47,7,7,0,0,0,64.66,46c.14,2.5.4,5,.62,7.52,1.4.16,2.78.21,4.12.48A15.32,15.32,0,0,1,81.54,70.68a2.22,2.22,0,0,1-1.44,2.06,2.25,2.25,0,0,1-2.53-.65q-3.88-3.9-7.78-7.78c-1-1-1.18-1-2.17,0l-3.43,3.44c-.83.84-.83,1.1,0,2,2.54,2.56,5.08,5.11,7.65,7.64a2.33,2.33,0,0,1-1.56,4.25,15.26,15.26,0,0,1-10.76-3.18l-.73-.53c0,1.76,0,3.36,0,5,0,.25.36.51.6.72A7.4,7.4,0,0,1,62,89.15c0,3.54,0,7.08,0,10.61,0,.8-.21,1.54-1,1.7a2,2,0,0,1-1.5-.39,2,2,0,0,1-.42-1.34c0-3.34,0-6.68,0-10s-1.78-5-4.95-5H32.17c-3.13,0-4.9,1.77-4.91,4.92s0,6.55,0,9.82a3.89,3.89,0,0,1-.1,1.08,1.34,1.34,0,0,1-1.49,1,1.36,1.36,0,0,1-1.34-1.24,4,4,0,0,1,0-.49c0-3.61,0-7.21,0-10.82a7.31,7.31,0,0,1,2.86-5.75,1.65,1.65,0,0,0,.53-1.13c0-2.87,0-5.75,0-8.63a7.44,7.44,0,0,0-1.55-4.7c-1.52-2-3-4-4.53-6a1.33,1.33,0,0,1-.1-1.81A2.25,2.25,0,0,1,23,60.36,1.51,1.51,0,0,1,24,61c1.69,2.2,3.37,4.41,5,6.67a9.37,9.37,0,0,1,1.7,5.6c0,2.77,0,5.55,0,8.4H55.82c0-1.61,0-3.26,0-4.9A8.5,8.5,0,0,0,55,72.51a14.48,14.48,0,0,1-1.24-8.22A1.82,1.82,0,0,0,53.29,63q-10-10.1-20.12-20.15a3.16,3.16,0,0,0-4.91.25c-.47.6-.93,1.21-1.44,1.77A1.47,1.47,0,1,1,24.55,43a27.87,27.87,0,0,1,2-2.46,5.61,5.61,0,0,1,6.21-1.33c1.44.58,2.86,1.21,4.29,1.8a3.32,3.32,0,0,0,4.52-1.59,3.26,3.26,0,0,0-1.87-4.32q-6.48-3-13-5.9A4.44,4.44,0,0,0,20.9,30.9q-3.21,4.71-6.37,9.46a6.75,6.75,0,0,0,.19,8.22c1.57,2.12,3.17,4.23,4.75,6.35.78,1,.78,2,0,2.51s-1.57.35-2.34-.68c-1.64-2.16-3.28-4.32-4.88-6.51A9.67,9.67,0,0,1,12,38.84c2-3.11,4.17-6.19,6.25-9.29.21-.3.4-.6.6-.89-.35-.74-.85-.85-1.62-.74A15.35,15.35,0,0,1,.1,11.1,2.32,2.32,0,0,1,1.63,8.89a2.32,2.32,0,0,1,2.57.79c2.56,2.58,5.14,5.15,7.71,7.72.94.94,1.14.93,2.1,0L17.37,14c.95-.94.95-1.17,0-2.09-2.59-2.6-5.2-5.19-7.78-7.79-1-1-1.22-2.15-.45-3A7.21,7.21,0,0,1,11.06,0ZM39.13,44.43l-.3.33a3.81,3.81,0,0,1,1,.53q7.94,7.91,15.86,15.83a3.49,3.49,0,0,1,1.12,3.28A12.22,12.22,0,0,0,63,77.1a11.54,11.54,0,0,0,5.94,1.53c-.37-.39-.58-.63-.81-.85-2.08-2.08-4.17-4.15-6.23-6.25a3.78,3.78,0,0,1,0-5.64c1.08-1.11,2.26-2.14,3.27-3.31,2.31-2.67,4.89-2.59,7.23,0,1.77,2,3.72,3.76,5.59,5.63.2.2.43.36.82.69-.13-1-.18-1.68-.33-2.38a12.24,12.24,0,0,0-13.85-9.79A3.75,3.75,0,0,1,61,55.48c-1-1.15-2.15-2.23-3.19-3.31-4.52,2.2-9.21-.23-9.73-5.12-4-.45-4.57-.72-6.57-3.28ZM54.37,50a3.35,3.35,0,0,0,2.68-1.28c1.45-1.67,2.9-3.34,4.33-5a3.18,3.18,0,0,0-.13-4.6,3.34,3.34,0,0,0-4.79.34C54.9,41.22,53.39,43,51.87,44.8a3,3,0,0,0-.44,3.42A3.1,3.1,0,0,0,54.37,50Zm.76-14.53a3.56,3.56,0,0,0-2.16-3,3.28,3.28,0,0,0-3.72.81,50.46,50.46,0,0,0-4.1,4.82,12.26,12.26,0,0,0-1.26,3.47c-.06.19.15.49.27.72a3.32,3.32,0,0,0,5.45.51c1.56-1.74,3.1-3.51,4.57-5.33A9.36,9.36,0,0,0,55.13,35.51ZM35.62,30c1.4-1.64,2.79-3.23,4.13-4.86a2.71,2.71,0,0,0,.49-1.27A3.08,3.08,0,0,0,38.5,20.5a3.33,3.33,0,0,0-4,.8C33,23,31.51,24.81,30,26.58c-.16.19-.28.4-.46.66Zm8.32,5c.17-.26.24-.38.32-.48.88-1,1.79-2,2.64-3.09a3.22,3.22,0,0,0-4.49-4.56c-1.43,1.32-2.64,2.87-4,4.37C40.49,32.28,42.66,32.83,43.94,35ZM60.09,49.81l2.08,2.11-.38-4.09Z"/><path class="cls-1" d="M53.12,90.82a1.48,1.48,0,1,1-1.39-1.52A1.5,1.5,0,0,1,53.12,90.82Z"/></g></g></svg>