<svg xmlns="http://www.w3.org/2000/svg" viewBox="0 0 80.98 82.77"><defs><style>.cls-1{fill:#74b1e1;}</style></defs><title>Asset 8</title><g id="Layer_2" data-name="Layer 2"><g id="Layer_1-2" data-name="Layer 1"><path class="cls-1" d="M40.16,0h.65a.58.58,0,0,0,.1.12L79.8,20.54a2.27,2.27,0,0,1,.81.5A1.49,1.49,0,0,1,81,22.1c-.07.32-.48.59-.79.81-.14.11-.4.06-.64.08,0,1.16,0,2.29,0,3.42a3.5,3.5,0,0,1-1.79,3.3,1.06,1.06,0,0,0-.38.77c0,1.27,0,2.54,0,3.8,0,2.26-.74,3.22-2.95,3.82a4.69,4.69,0,0,0-.06.54q0,13.86,0,27.73a.61.61,0,0,0,.54.72,3.07,3.07,0,0,1,2.47,3.24c0,1.34,0,2.69,0,4A1.11,1.11,0,0,0,78,75.52a2.75,2.75,0,0,1,1.47,2.2c.1,1.29.09,2.58.08,3.87a1.1,1.1,0,0,1-1.18,1.17c-.24,0-.49,0-.73,0H2.82c-.94,0-1.34-.4-1.37-1.33s0-2,0-3a3.47,3.47,0,0,1,1.81-3.12,1.08,1.08,0,0,0,.35-.79c0-1.45,0-2.91,0-4.36a3,3,0,0,1,2.18-3c.74-.17.84-.51.84-1.15q0-13.55,0-27.08v-.85c-2.36-.69-3-1.57-3-4,0-1.21,0-2.42,0-3.63a1.06,1.06,0,0,0-.37-.78,3.56,3.56,0,0,1-1.8-3.38c0-1.12,0-2.24,0-3.39-.71,0-1.31-.2-1.42-1s.42-1.09,1-1.38l.15-.07L26.39,7.27ZM18.08,38.11c0,.2,0,.36,0,.52,0,9.24,0,18.48,0,27.72,0,.49.15.68.65.79a3.06,3.06,0,0,1,2.37,2.92c0,.77,0,1.56,0,2.34v2.46h10.7c0-1.57,0-3.07,0-4.58A3,3,0,0,1,34,67.19c.72-.16.78-.5.78-1.11q0-13.53,0-27.07c0-.65-.13-1-.84-1.15A2.94,2.94,0,0,1,31.77,35c0-1.13,0-2.26,0-3.39V30.17H21.13a1.39,1.39,0,0,0-.05.23c0,1.29,0,2.59,0,3.88C21.06,36.53,20.3,37.53,18.08,38.11Zm31.17-8c0,.3,0,.56,0,.82,0,1.32,0,2.64,0,4a3.14,3.14,0,0,1-2.45,3l-.5.13c0,.14,0,.22,0,.29q0,14,0,28.05c0,.43.16.58.58.69a3.07,3.07,0,0,1,2.44,3.1c0,.65,0,1.29,0,1.94v2.72H59.87c0-.3,0-.56,0-.82,0-1.27,0-2.54,0-3.8a3.06,3.06,0,0,1,2.49-3.15c.45-.11.53-.33.53-.73q0-13.86,0-27.72c0-.46-.15-.61-.61-.72a3.08,3.08,0,0,1-2.41-3.05c0-1.32,0-2.64,0-4,0-.26,0-.51,0-.79ZM73.86,20c-.38-.23-.57-.36-.77-.46q-16-8.42-32-16.83a1.11,1.11,0,0,0-1.19,0Q23.84,11.13,7.76,19.56a6.88,6.88,0,0,0-.58.41ZM40.48,22.25H5.73c-.27,0-.54,0-.81,0-.83,0-1.25.42-1.28,1.25,0,1,0,2.1,0,3.15,0,.82.44,1.2,1.27,1.27.24,0,.49,0,.73,0H75.79c1.11,0,1.52-.42,1.54-1.52,0-.75,0-1.5,0-2.26,0-1.63-.28-1.91-1.93-1.91ZM77.33,80.52V79.29c0-1.85-.26-2.12-2.08-2.12H5.73a7.8,7.8,0,0,0-1,0,1.15,1.15,0,0,0-1.1,1.11c-.05.71,0,1.44,0,2.21ZM43.93,67c0-.22.07-.4.07-.58q0-13.82,0-27.63c0-.53-.18-.7-.7-.69-1.8,0-3.61,0-5.41,0-.73,0-1,.18-.95.94Q37,52.51,37,66V67Zm28.15,0a6.08,6.08,0,0,0,.06-.68q0-13.72,0-27.47c0-.63-.22-.77-.8-.76-1.83,0-3.66,0-5.5,0a5.72,5.72,0,0,0-.7.07V67Zm-56.29,0V38.09H15c-1.73,0-3.45,0-5.17,0-.79,0-1,.2-1,1,0,9,0,18,0,27v.92ZM5.9,31.82H18.79V30.15H5.9Zm28.15-1.68v1.69H46.91V30.14Zm28.13,1.67H75.06V30.16H62.18ZM34.06,70.93H46.91c.16-1.41-.1-1.71-1.43-1.71-3.34,0-6.67,0-10,0C34.14,69.22,33.88,69.53,34.06,70.93ZM75,34.16H62.18c-.11,1.46.13,1.72,1.54,1.72h9.85C75,35.88,75.22,35.57,75,34.16ZM5.92,71H18.77c.15-1.4-.12-1.71-1.43-1.72h-10C6,69.24,5.74,69.56,5.92,71Zm56.27,0H75c.17-1.39-.1-1.71-1.41-1.72h-10C62.3,69.24,62,69.54,62.19,71ZM34.08,34.15c-.22,1.36.06,1.71,1.37,1.71H45.54c1.29,0,1.6-.41,1.32-1.71Zm-15.3,0H5.92c-.18,1.38.09,1.71,1.41,1.71h10C18.65,35.86,18.91,35.56,18.78,34.15ZM5.88,74.87H18.77V73.26H5.88Zm28.15,0H46.92V73.26H34Zm28.14,0H75.06V73.26H62.17Z"/></g></g></svg>