<svg xmlns="http://www.w3.org/2000/svg" viewBox="0 0 84.82 84.85"><defs><style>.cls-1{fill:#74b1e1;}</style></defs><title>Asset 9</title><g id="Layer_2" data-name="Layer 2"><g id="Layer_1-2" data-name="Layer 1"><path class="cls-1" d="M0,80.69c.06-.21.13-.42.18-.63a3.42,3.42,0,0,1,3.42-2.7c.74,0,1.48,0,2.37,0V17.56c0-1.66.32-2,2-2H20.05c1.92,0,2.16.23,2.16,2.12V77.3h2.62V36.06c0-1.61.31-1.91,1.94-1.91H39.2c1.49,0,1.86.36,1.86,1.85V77.3h2.52c0-.33.05-.68.05-1q0-10.77,0-21.54c0-1.68.3-2,2-2H57.87c1.73,0,2,.27,2,2V77.32h2.6v-13c0-1.39.38-1.78,1.76-1.78H77c1.35,0,1.72.38,1.72,1.73V77.36c.84,0,1.6,0,2.37,0a3.74,3.74,0,0,1,0,7.47c-.25,0-.5,0-.75,0H18.08c-.22,0-.45,0-.67,0a1.19,1.19,0,0,1-1.28-1.21,1.22,1.22,0,0,1,1.33-1.27h63c1.19,0,1.68-.35,1.7-1.2A1.16,1.16,0,0,0,81,79.85c-.25,0-.5,0-.75,0H3.81c-.87,0-1.33.46-1.33,1.24A1.2,1.2,0,0,0,3.8,82.34c2.1,0,4.2,0,6.3,0a4.54,4.54,0,0,1,.74,0,1.1,1.1,0,0,1,1.05,1.18c0,.67-.33,1.25-1.06,1.26-2.59,0-5.19.09-7.78,0A3.18,3.18,0,0,1,.19,82.14c-.06-.2-.13-.41-.19-.62ZM8.53,18.1V77.31H19.66V18.1ZM27.37,36.66V77.28H38.51V36.66Zm30,40.66v-22c-.31,0-.55,0-.79,0-3.18,0-6.35,0-9.53,0-.76,0-.91.24-.9.95,0,6.76,0,13.52,0,20.29,0,.29,0,.58.05.87Zm18.86,0V65.08H65V77.33Z"/><path class="cls-1" d="M68.76,0c1.52.39,3.08.66,4.54,1.19a23,23,0,0,1,3.58,1.86c.89.53,1.06,1.18.62,1.85s-1.15.79-2,.2c-7.34-5-16.94-2.35-21.43,4.4C47.94,18.71,53.91,31.59,64.88,33A15.45,15.45,0,0,0,82.16,15.72a14.61,14.61,0,0,0-2.08-5.8c-.54-.89-.32-1.64.51-2s1.24.07,1.63.71A16.71,16.71,0,0,1,83.81,23.3C81.5,29.9,76.9,34.08,69.93,35.39A17.8,17.8,0,1,1,65,.15,2.47,2.47,0,0,0,65.45,0Z"/><path class="cls-1" d="M71.7,54.12c0-.93,0-1.64,0-2.35a1.23,1.23,0,1,1,2.46-.08c0,1.77,0,3.54,0,5.3a1.21,1.21,0,0,1-1.27,1.27c-1.65,0-3.31,0-5,0A1.23,1.23,0,1,1,68,55.8h1.55l.15-.21c-.32-.27-.65-.54-1-.83Q51.63,38.64,34.52,22.48L14,3.16c-.22-.21-.44-.41-.66-.63A1.26,1.26,0,0,1,13.23.64a1.24,1.24,0,0,1,1.84.08c1.36,1.26,2.7,2.53,4.05,3.8L70.85,53.35C71.07,53.56,71.3,53.75,71.7,54.12Z"/><path class="cls-1" d="M65.6,25.47c0-2.66,0-5,0-7.29,0-.2-.25-.45-.44-.58-.46-.31-1-.53-1.42-.84a4.45,4.45,0,0,1-2.22-4.33,4.88,4.88,0,0,1,3.19-4.27c.72-.28,1-.58.93-1.34-.06-1,.48-1.53,1.24-1.51s1.2.56,1.23,1.47c0,.3,0,.6,0,.78a29.36,29.36,0,0,1,2.75,1.3,1.27,1.27,0,0,1,.6,1.93c-.43.62-1.13.65-2,.13-.38-.25-.81-.43-1.32-.7v5.9c2.77,1,4.86,2.58,4.74,5.84-.12,3.06-1.9,4.88-4.75,5.73-.21,1,.42,2.55-1.28,2.59s-1.13-1.48-1.25-2.22c-1.36-.55-2.59-1-3.76-1.56-.92-.45-1.1-1.12-.67-1.81s1.06-.77,1.93-.32S64.63,25.05,65.6,25.47Zm2.53-.5a3.39,3.39,0,0,0,2.29-3.13A3.27,3.27,0,0,0,68.13,19ZM65.54,15V10.49A2.69,2.69,0,0,0,64,13.12,2.11,2.11,0,0,0,65.54,15Z"/></g></g></svg>