<svg xmlns="http://www.w3.org/2000/svg" viewBox="0 0 82.87 90.67"><defs><style>.cls-1{fill:#74b1e1;}</style></defs><title>Asset 11</title><g id="Layer_2" data-name="Layer 2"><g id="Layer_1-2" data-name="Layer 1"><path class="cls-1" d="M61.28,90.67c-2.1-.77-2.8-2.31-2.79-4.48.06-9.33,0-18.66,0-28V57c-1,0-1.91,0-2.82,0a3.6,3.6,0,0,1-3.94-3.9c0-7.35,0-14.7,0-22A10.46,10.46,0,0,1,62.3,20.33c3.54-.07,7.09-.08,10.63,0a10.51,10.51,0,0,1,9.93,10.12c0,1-.42,1.59-1.2,1.68s-1.37-.45-1.46-1.51a8,8,0,0,0-3-6A6.86,6.86,0,0,0,73,23c-3.78-.05-7.56-.12-11.33,0A7.6,7.6,0,0,0,54.55,30c-.13,1.71-.12,3.42-.13,5.13,0,5.87,0,11.75,0,17.62,0,1.43.19,1.62,1.64,1.62h2.39c0-.43.07-.79.07-1.16V31.74a5.08,5.08,0,0,1,.11-1.23,1.06,1.06,0,0,1,1.3-.9,2.27,2.27,0,0,1,1.15,1c.19.3.09.8.09,1.21q0,27.14,0,54.28a2.38,2.38,0,0,0,0,1c.17.34.52.79.84.82a25,25,0,0,0,3,0,.87.87,0,0,0,.91-.89c0-.3,0-.59,0-.89V66.83a6.28,6.28,0,0,1,.06-1.06,1.28,1.28,0,0,1,2.5,0,6.19,6.19,0,0,1,.09,1.14c0,6.52,0,13,0,19.57,0,1.44.13,1.57,1.56,1.57h2.21a.93.93,0,0,0,1-1,8.61,8.61,0,0,0,0-.88q0-27.2,0-54.37c0-.38-.11-.84.06-1.13a2.51,2.51,0,0,1,1.13-1,1.06,1.06,0,0,1,1.33.86,4.52,4.52,0,0,1,.13,1.22V54.27c1.16,0,2.27.06,3.37,0,.62,0,.73-.6.73-1.14,0-1.86,0-3.72,0-5.58q0-5.79,0-11.6c0-.29-.1-.67,0-.86a2.82,2.82,0,0,1,1.14-1,1.06,1.06,0,0,1,1.34.85,3.61,3.61,0,0,1,.12,1V52.83c0,2.76-1.38,4.15-4.13,4.15-.82,0-1.65,0-2.62,0v1.16c0,9.35,0,18.71,0,28.06,0,2.17-.7,3.72-2.81,4.47H68.72a2.06,2.06,0,0,0-2.83,0Z"/><path class="cls-1" d="M8.5,90.67C6.56,90,5.92,88.53,6,86.52,6,81.69,6,76.85,6,72v-1.1H4.26c-1.49,0-1.93-.46-1.79-1.92.25-2.59.55-5.16.83-7.74,0,0-.08-.12-.13-.13C1,60.84,0,59.29,0,57.06c.06-6.28,0-12.57,0-18.85a9.48,9.48,0,0,1,7.43-9.44,4.45,4.45,0,0,1,1-.14c4,.06,8.06-.24,12,.3,4.25.59,7.18,4.58,7.22,8.87,0,6.64,0,13.27,0,19.91,0,1.87-.95,2.87-3.25,3.46.16,1.5.31,3,.48,4.53.13,1.17.28,2.34.4,3.51a1.38,1.38,0,0,1-1.45,1.69c-.65,0-1.29,0-2.09,0,0,.86,0,1.64,0,2.42s0,1.72,0,2.57a1.31,1.31,0,0,1-1.34,1.26A1.3,1.3,0,0,1,19.1,75.8c0-1.26,0-2.53,0-3.8V71H8.69c0,.29,0,.57,0,.85v15C8.64,88,8.69,88,9.83,88c.53,0,1.06,0,1.59,0,.87.08,1.13-.33,1.12-1.15,0-4.28,0-8.55,0-12.83a7.79,7.79,0,0,1,0-1,1.2,1.2,0,0,1,1.25-1.14,1.18,1.18,0,0,1,1.27,1,5.26,5.26,0,0,1,.09,1q0,6.42,0,12.84c0,1.13.06,1.19,1.21,1.19.53,0,1.07,0,1.59,0,.81.06,1.11-.29,1.1-1.08,0-2.1,0-4.19,0-6.29,0-.32-.08-.74.09-1,.3-.37.76-.83,1.17-.85a1.89,1.89,0,0,1,1.22.77c.21.24.16.73.16,1.11,0,1.94,0,3.89,0,5.84s-.67,3.42-2.63,4.1h-3.9a2.48,2.48,0,0,0-2.83,0ZM3.58,58.4c0-.28.1-.51.13-.74l2-18.47c.1-.94.19-1.88.32-2.81A1.35,1.35,0,0,1,7.5,35.13a1.32,1.32,0,0,1,1.17,1.42,7,7,0,0,1-.06.79L7.8,44.55,5.73,63.37c-.17,1.6-.33,3.2-.5,4.82H22.45c0-.26,0-.46-.05-.66q-.39-3.61-.79-7.21-.93-8.49-1.87-17c-.24-2.2-.49-4.39-.72-6.59a1.37,1.37,0,0,1,1.15-1.62c.75-.09,1.32.42,1.47,1.32,0,.2.08.41.1.61L23.57,54c.17,1.49.35,3,.52,4.46.89,0,.9-.5.9-1.07,0-5,0-10,0-15,0-1.56,0-3.13,0-4.69a6.48,6.48,0,0,0-6-6.35c-3.24-.21-6.49-.1-9.73-.11a5.27,5.27,0,0,0-1.48.24,6.78,6.78,0,0,0-5.09,6.91c0,3.81,0,7.62,0,11.43v7.61C2.68,58,2.77,58.43,3.58,58.4Z"/><path class="cls-1" d="M37.37,90.67c-2.1-.86-2.71-2.47-2.67-4.65.09-5.19,0-10.38,0-15.57a2,2,0,0,0-.6-1.48c-1.74-1.81-3.48-3.61-5.14-5.49a3.55,3.55,0,1,1,5.31-4.71c1.45,1.55,2.89,3.11,4.38,4.63a1.88,1.88,0,0,0,1.13.49c1.26.06,2.53.06,3.8,0a1.65,1.65,0,0,0,1.05-.46c1.57-1.6,3.07-3.26,4.64-4.86a3.33,3.33,0,0,1,3.75-.81,3.36,3.36,0,0,1,2.28,3.09,3.63,3.63,0,0,1-1.13,2.87c-1.69,1.78-3.38,3.55-5,5.36a2.13,2.13,0,0,0-.49,1.24c-.06,1.53,0,3.06,0,4.6a4.22,4.22,0,0,1-.1.87,1.2,1.2,0,0,1-1.29,1,1.16,1.16,0,0,1-1.23-1.15c0-2.24,0-4.49,0-6.73a2.11,2.11,0,0,1,.66-1.1c1.74-1.88,3.51-3.75,5.26-5.62a4.69,4.69,0,0,0,.47-.53c.32-.44.36-1-.12-1.23a1.93,1.93,0,0,0-1.18.06c-.2.05-.34.32-.5.49-1.45,1.55-2.93,3.08-4.35,4.65a2.59,2.59,0,0,1-2.16,1c-1.66,0-3.31,0-5,0a2.55,2.55,0,0,1-2.09-.92c-1.47-1.62-3-3.2-4.47-4.79-.46-.48-.95-1-1.63-.44s-.18,1.15.29,1.65c1.76,1.87,3.5,3.75,5.28,5.6a2.74,2.74,0,0,1,.82,2c0,5.58,0,11.15,0,16.73,0,1.41.15,1.55,1.59,1.55h1.34V87q0-4.65,0-9.3a5.39,5.39,0,0,1,.06-1.06,1.08,1.08,0,0,1,1.25-1,2.33,2.33,0,0,1,1.22.92c.19.26.12.74.12,1.12,0,3.39,0,6.78,0,10.29.78,0,1.51,0,2.23,0s.82-.57.82-1.16V80.64a6.42,6.42,0,0,1,0-.88,1.21,1.21,0,0,1,1.16-1.14,1.19,1.19,0,0,1,1.37,1,4.41,4.41,0,0,1,.1,1c0,1.92-.06,3.84,0,5.75.08,2.15-.72,3.65-2.82,4.36Z"/><path class="cls-1" d="M67.31,19.16a9.58,9.58,0,1,1,9.58-9.55A9.57,9.57,0,0,1,67.31,19.16Zm0-2.66a6.92,6.92,0,0,0,0-13.84,6.92,6.92,0,1,0,0,13.84Z"/><path class="cls-1" d="M23.42,17.72a9.59,9.59,0,1,1-9.55-9.59A9.55,9.55,0,0,1,23.42,17.72Zm-2.67,0a6.92,6.92,0,1,0-6.93,6.89A6.93,6.93,0,0,0,20.75,17.73Z"/><path class="cls-1" d="M35.85,56.16a5.79,5.79,0,1,1,5.76,5.77A5.85,5.85,0,0,1,35.85,56.16Zm5.74,3.11a3.13,3.13,0,1,0-3.08-3.22A3.19,3.19,0,0,0,41.59,59.27Z"/></g></g></svg>