<svg xmlns="http://www.w3.org/2000/svg" viewBox="0 0 86.4 86.4"><defs><style>.cls-1{fill:#74b1e1;}</style></defs><title>Asset 12</title><g id="Layer_2" data-name="Layer 2"><g id="Layer_1-2" data-name="Layer 1"><path class="cls-1" d="M37.12,0H49.27a1.68,1.68,0,0,1,1.06,2c-.29,2.11-.51,4.23-.79,6.35-.2,1.58.23,2.33,1.77,2.74a35.11,35.11,0,0,1,8.76,3.61c1.39.81,2.18.61,3.19-.68,1.17-1.5,2.34-3,3.52-4.52.89-1.13,1.7-1.18,2.73-.16q3.76,3.75,7.51,7.51c1,1,1,1.84-.16,2.74-1.57,1.23-3.16,2.44-4.72,3.68A1.88,1.88,0,0,0,71.51,26a39.1,39.1,0,0,1,3.88,9.39,1.91,1.91,0,0,0,2.38,1.48c2.2-.28,4.4-.53,6.6-.83a1.68,1.68,0,0,1,2,1V49.27a1.67,1.67,0,0,1-2,1.06c-2.14-.29-4.29-.52-6.43-.8a2,2,0,0,0-2.64,1.69,35.5,35.5,0,0,1-3.68,8.92c-.75,1.3-.55,2.12.65,3.06,1.52,1.2,3.06,2.38,4.59,3.57,1.13.9,1.19,1.71.16,2.74Q73.29,73.27,69.51,77c-1,1-1.84,1-2.73-.16-1.23-1.56-2.44-3.15-3.68-4.71a1.88,1.88,0,0,0-2.73-.64A38.83,38.83,0,0,1,51,75.38a1.92,1.92,0,0,0-1.49,2.38c.28,2.2.53,4.41.83,6.6a1.68,1.68,0,0,1-1.06,2H37.12a1.69,1.69,0,0,1-1-2c.29-2.11.51-4.24.79-6.35.2-1.58-.23-2.33-1.77-2.74a35.11,35.11,0,0,1-8.76-3.61c-1.39-.81-2.18-.61-3.19.68L19.68,76.8c-1,1.22-1.74,1.26-2.85.16l-7.4-7.39c-1.09-1.1-1-1.89.18-2.85,1.55-1.21,3.11-2.41,4.65-3.63a1.88,1.88,0,0,0,.63-2.73A38.69,38.69,0,0,1,11,51,1.91,1.91,0,0,0,8.63,49.5c-2.2.28-4.4.53-6.6.83a1.68,1.68,0,0,1-2-1.06V37.12a1.69,1.69,0,0,1,2-1c2.14.29,4.29.52,6.44.8a2,2,0,0,0,2.63-1.69,35.5,35.5,0,0,1,3.68-8.92c.76-1.3.55-2.12-.65-3.06-1.52-1.2-3.06-2.38-4.59-3.57-1.13-.9-1.19-1.71-.16-2.74q3.73-3.77,7.51-7.51c1-1,1.84-1,2.73.16,1.24,1.57,2.44,3.15,3.68,4.72a1.91,1.91,0,0,0,2.8.6,37.22,37.22,0,0,1,9.23-3.81,2,2,0,0,0,1.56-2.49c-.29-2.18-.52-4.35-.82-6.52A1.69,1.69,0,0,1,37.12,0ZM68.23,12.36c-1,1.22-1.89,2.45-2.85,3.66a4.73,4.73,0,0,1-6.51,1.34,37.39,37.39,0,0,0-8.61-3.55,4.76,4.76,0,0,1-3.59-5.67c.24-1.72.43-3.44.64-5.22H39.09c.21,1.7.4,3.35.6,5,.4,3.26-.81,5.17-4,6a33.94,33.94,0,0,0-7.91,3.27c-2.78,1.58-5,1.08-7-1.47l-2.63-3.38-5.8,5.81c1.2.94,2.47,1.91,3.71,2.91a4.67,4.67,0,0,1,1.31,6.37,38.08,38.08,0,0,0-3.58,8.69,4.76,4.76,0,0,1-5.67,3.59c-1.72-.24-3.44-.43-5.22-.64v8.22l5-.6c3.26-.4,5.18.82,6,4a33.84,33.84,0,0,0,3.27,7.92c1.57,2.78,1.08,5-1.47,7l-3.29,2.55,5.81,5.78c.88-1.13,1.83-2.39,2.82-3.61A4.67,4.67,0,0,1,27.45,69a39,39,0,0,0,8.69,3.58,4.74,4.74,0,0,1,3.59,5.66c-.24,1.72-.43,3.45-.64,5.23h8.22c-.2-1.7-.4-3.34-.6-5-.4-3.26.82-5.18,4-6a33.84,33.84,0,0,0,7.92-3.27c2.78-1.57,5-1.08,7,1.47l2.54,3.27,5.8-5.78c-1.15-.89-2.4-1.84-3.63-2.83A4.68,4.68,0,0,1,69,59a38.54,38.54,0,0,0,3.58-8.69,4.75,4.75,0,0,1,5.67-3.59c1.71.24,3.44.43,5.22.64V39.09l-5,.6c-3.26.4-5.18-.82-6-4a33.84,33.84,0,0,0-3.27-7.92c-1.57-2.78-1.08-5,1.47-7L74,18.17Z"/><path class="cls-1" d="M63.34,43.24A20.14,20.14,0,1,1,43.28,23.06,20.16,20.16,0,0,1,63.34,43.24ZM43.22,60.46A17.26,17.26,0,1,0,25.94,43.22,17.26,17.26,0,0,0,43.22,60.46Z"/><path class="cls-1" d="M41.7,33c.22-2.21.53-2.78,1.5-2.78s1.28.57,1.51,2.86H47c.59,0,1.18,0,1.77,0a1.47,1.47,0,0,1,1.58,1.49A1.45,1.45,0,0,1,48.77,36c-1.34,0-2.68,0-4.07,0v5.7c.65.05,1.28.08,1.92.14a5.71,5.71,0,0,1,.19,11.36c-.69.08-1.39.11-2.11.16-.16,1.15.26,2.78-1.54,2.75s-1.31-1.62-1.46-2.81H38.15a4.19,4.19,0,0,1-1-.09A1.34,1.34,0,0,1,36,51.74a1.31,1.31,0,0,1,1.31-1.29c1.2-.05,2.41-.07,3.62,0,.64,0,.82-.19.81-.82,0-1.62,0-3.24,0-5-2.37.12-4.46-.31-6-2.23a5.58,5.58,0,0,1-1.21-3.77,5.65,5.65,0,0,1,2.26-4.33C37.76,33.59,38.3,33.45,41.7,33Zm0,3.06c-1.82-.32-3.12.14-3.83,1.32a2.88,2.88,0,0,0,.25,3.3,3.31,3.31,0,0,0,3.58.89Zm3,8.6c0,.26-.05.53-.05.79,0,1.1,0,2.19,0,3.28,0,1.83.11,1.92,2,1.57a2.84,2.84,0,0,0,2.34-2.95,2.8,2.8,0,0,0-2.54-2.69C45.87,44.64,45.34,44.69,44.7,44.69Z"/></g></g></svg>