<svg xmlns="http://www.w3.org/2000/svg" viewBox="0 0 85.39 85.2"><defs><style>.cls-1{fill:#74b1e1;}</style></defs><title>Asset 13</title><g id="Layer_2" data-name="Layer 2"><g id="Layer_1-2" data-name="Layer 1"><path class="cls-1" d="M38.29,69.08c-7.09,0-14.18,0-21.27,0a4.88,4.88,0,0,1-4.92-5.18A5.18,5.18,0,0,1,17,58.94c2-.08,4.08,0,6.12,0h36.1c2.13,0,2.26-.13,2.26-2.27,0-1.17,0-2.35,0-3.53,0-.84-.34-1.36-1.26-1.3S59,51.3,59,50.48c0-2.07,0-4.15-.11-6.22,0-1,.41-1.35,1.41-1.35,6.55,0,13.09,0,19.64,0,1.33,0,2.66-.09,4-.16,1,0,1.47.31,1.46,1.36,0,2.07,0,4.15,0,6.23,0,.89-.28,1.58-1.32,1.55s-1.36.53-1.36,1.47c0,3.17-.07,6.35-.08,9.52,0,3.92,0,7.84,0,11.76,0,1,.15,1.79,1.46,1.71.78,0,1.12.47,1.12,1.21l0,6.47c0,.84-.45,1.16-1.27,1.16q-11.88,0-23.75,0c-.88,0-1.21-.4-1.2-1.21,0-2.16,0-4.31,0-6.47,0-.76.32-1.22,1.12-1.17,1.12.07,1.42-.54,1.41-1.53,0-1.33,0-2.66,0-4s-.24-1.64-1.66-1.64H38.29ZM38.47,67v.11h4.7c5.57,0,11.13-.06,16.69-.12,1.41,0,1.6-.25,1.62-1.68,0-.75,0-1.49,0-2.24,0-1.84-.21-2-2-2H18.84A9.73,9.73,0,0,0,17,61.1a3,3,0,0,0-2.53,2c-.37,1.24-.24,2.51,1.05,3.17a5.81,5.81,0,0,0,2.52.64C24.83,67,31.65,67,38.47,67ZM72,70.84c2.31,0,4.62,0,6.93,0,.91,0,1.51-.29,1.5-1.34q0-5.41,0-10.81c0-1-.5-1.47-1.52-1.47q-6.81,0-13.63,0c-1.09,0-1.53.44-1.52,1.55,0,3.49,0,7,0,10.46,0,1.4.2,1.6,1.66,1.62C67.62,70.85,69.82,70.83,72,70.84Zm0,12.23h8.22c2.66,0,2.66,0,2.65-2.63,0-1.65-.09-1.75-1.71-1.75H63.81c-2.76,0-2.76,0-2.69,2.7,0,1.46.24,1.68,1.75,1.69C65.92,83.08,69,83.07,72,83.07ZM71.83,49.5v0c3.09,0,6.18,0,9.27,0,.51,0,1.41-.24,1.44-.47a9,9,0,0,0,0-3.31c-.08-.35-1.25-.63-1.92-.64C75.06,45,69.5,45,64,45c-2.86,0-2.92.13-2.85,3,0,1.11.48,1.52,1.57,1.5C65.72,49.48,68.77,49.5,71.83,49.5Zm.23,26.85h6.81c1,0,1.57-.37,1.56-1.44s-.52-1.7-1.74-1.7c-4.42,0-8.84,0-13.26,0-1.06,0-1.64.4-1.64,1.5s.39,1.65,1.7,1.66C67.68,76.36,69.87,76.35,72.06,76.35Zm.07-24.56h0c-2.24,0-4.47,0-6.7,0-1.05,0-1.65.33-1.64,1.46s.36,1.64,1.6,1.65q6.69,0,13.4,0a1.43,1.43,0,0,0,1.62-1.67c0-1.12-.66-1.46-1.7-1.44C76.52,51.81,74.32,51.79,72.13,51.79Z"/><path class="cls-1" d="M42.59,10.68c12.62,0,25.25.06,37.87,0,3.22,0,4.8,2,4.73,4.74-.13,5.29-.06,10.58,0,15.88,0,2.38.16,4.77.19,7.16,0,1-.49,1.44-1.45,1.32-.68-.09-1.07-.4-1-1.15s0-1.41,0-2.12c0-1.86-.15-2-2-1.71C77,35.37,73.1,36,69.19,36.65Q60.49,38,51.8,39.41a22.19,22.19,0,0,1-2.58.15c-.68,0-1-.3-1-1a1,1,0,0,1,.94-1.09c4.76-.67,9.53-1.33,14.29-2.06,5.88-.89,11.75-1.83,17.62-2.75,1.64-.26,1.82-.44,1.82-2.12q0-7.75,0-15.52c0-1.77-.33-2.11-2.14-2.19-1.14-.06-2.27,0-3.41,0H5.59c-3.13,0-3.46.32-3.46,3.41q0,7,0,14c0,1.86.29,2.17,2.09,2.44,5.11.76,10.23,1.48,15.33,2.29,4.68.75,9.34,1.61,14,2.38a14.44,14.44,0,0,0,2.46.13c.79,0,1,.44,1,1.13s-.33,1-1,1c-2.34-.25-4.67-.51-7-.8-2.14-.26-4.28-.53-6.41-.87S18.24,37,16,36.67c-4-.67-8-1.31-11.95-2-1.54-.24-1.94.07-1.94,1.64q0,14.4,0,28.81c0,1.48.51,1.9,2,1.88,1.29,0,2.58,0,3.87,0,.66,0,1.32.19,1.33,1s-.68,1-1.32,1c-2.31,0-4.62,0-6.94,0C.35,69.19,0,68.81,0,68c0-1.09,0-2.19,0-3.29V15.1a4.14,4.14,0,0,1,1.21-3.41,4.55,4.55,0,0,1,3.15-1q19.11,0,38.22,0Z"/><path class="cls-1" d="M42.55,2.19c-1.77,0-3.53,0-5.29,0a2.81,2.81,0,0,0-2.9,2.88c0,.86,0,1.73,0,2.59s-.4,1.05-1.09,1.07-1-.4-1-1.11c0-1,0-2,0-2.94A4.63,4.63,0,0,1,36.93.05q5.63-.11,11.27,0A4.84,4.84,0,0,1,53,4.88c0,.94,0,1.88.06,2.82,0,.67-.27,1-.95,1.06s-1.18-.19-1.21-1,0-1.72,0-2.58a2.89,2.89,0,0,0-3.15-3C46,2.17,44.27,2.19,42.55,2.19Z"/><path class="cls-1" d="M38.39,38.47a16.8,16.8,0,0,1,1.38-3.59,3.21,3.21,0,0,1,3.52-1.33,4,4,0,0,1,3.12,3.3,6.34,6.34,0,0,1-.67,5,3.77,3.77,0,0,1-4,1.69,4.07,4.07,0,0,1-2.94-3.41c0-.51,0-1,0-1.52Zm2.51.07a5.09,5.09,0,0,0,.3,1.73,2.28,2.28,0,0,0,1.35,1.11,1.71,1.71,0,0,0,1.3-.89,4.37,4.37,0,0,0-.06-3.94,1.54,1.54,0,0,0-1.19-.71,2.06,2.06,0,0,0-1.33.91A5.43,5.43,0,0,0,40.9,38.54Z"/></g></g></svg>