<svg xmlns="http://www.w3.org/2000/svg" viewBox="0 0 86.05 107.07"><defs><style>.cls-1{fill:#74b1e1;}</style></defs><title>Asset 15</title><g id="Layer_2" data-name="Layer 2"><g id="Layer_1-2" data-name="Layer 1"><path class="cls-1" d="M23.94,98.29c-4,.28-5.49-.64-7.1-4.37a18.34,18.34,0,0,1-2,0,5.47,5.47,0,0,1-3.66-9c.34-.41,1-1,.86-1.3A5.64,5.64,0,0,0,10.64,81a5,5,0,0,0-2.79-.88c-2.58-.11-5.16,0-7.85,0V77.53c2.37,0,4.79-.06,7.21,0a17.73,17.73,0,0,1,3.48.52,4.61,4.61,0,0,1,3.43,3.49,2.07,2.07,0,0,0,2,1.65,5.86,5.86,0,0,1,4.14,2.85,5.8,5.8,0,0,1,5.15-1.61,5.88,5.88,0,0,1,4.13,3.31c2.63-1.24,5.12-1.25,7.14,1s1.8,4.8.25,7.26a20.1,20.1,0,0,1,2.65,1.13,4.94,4.94,0,0,1,2.54,5.09,1.55,1.55,0,0,0,1.07,1.86A3,3,0,0,0,47.1,103a2.9,2.9,0,0,0-.79-4c-.84-.62-1.74-1.16-2.67-1.77L45,95.1c2.17,1.38,4.22,2.69,6.28,4,1.87,1.18,3.67.91,4.63-.67s.38-3.19-1.43-4.36l-6.27-4,1.38-2.23,8.27,5.24c.85.54,1.69,1.1,2.55,1.62a3,3,0,0,0,4.28-.8,2.93,2.93,0,0,0-1.08-4.21c-3.26-2.1-6.55-4.16-9.83-6.25-.28-.18-.55-.37-1-.66l1.37-2.18,1.33.83c4.57,2.9,9.13,5.82,13.71,8.71A2.92,2.92,0,0,0,73,90a2.74,2.74,0,0,0,.79-3.38A4,4,0,0,0,72.37,85q-11.07-7-22.2-13.85c-1.9-1.18-6.88-.5-8.47,1.08-1,1-2,2-3,2.95A5.77,5.77,0,1,1,30.61,67c1.78-1.81,3.59-3.59,5.39-5.39,0,0,0-.09.07-.36H29.65V58.72H51v2.5a43.29,43.29,0,0,1-5.7,0,8.66,8.66,0,0,0-8.7,3.57,48.71,48.71,0,0,1-4.05,4.08A3.15,3.15,0,1,0,37,73.28c1.1-1.06,2.18-2.15,3.26-3.25a6.26,6.26,0,0,1,4.36-1.92,49.64,49.64,0,0,1,5,0,3.78,3.78,0,0,1,1.68.69q9.6,5.94,19.16,11.93l1.54.94a5.44,5.44,0,0,1,3.36-3.62c.31-.13.61-.4.91-.4,3.25,0,6.5,0,9.79,0v2.59H77.83a3,3,0,0,0-3.21,2.11,1.44,1.44,0,0,0,.2,1.2c2.12,2.47,2.42,5.16.78,7.46s-4.29,2.88-7.19,1.71a5.08,5.08,0,0,0-.5-.14,6,6,0,0,1-3.11,4.71A5.85,5.85,0,0,1,59.11,97a6,6,0,0,1-3.06,4.77,5.72,5.72,0,0,1-5.66-.14,1.65,1.65,0,0,0-.21.38c-1.12,4.6-4.64,6.19-8.84,4a1.56,1.56,0,0,0-1.25,0c-3.83,2.14-7,1-8.82-3.28C27.65,103.36,25,102.12,23.94,98.29Zm8.56-9a7.77,7.77,0,0,0-2.14,1.46A58.65,58.65,0,0,0,27,96a2.77,2.77,0,0,0,.92,3.78,2.71,2.71,0,0,0,3.73-.56,53.27,53.27,0,0,0,3.61-5.67C36.2,91.75,34.73,89.56,32.5,89.3ZM27.24,90a2.9,2.9,0,0,0-2-2.87,2.63,2.63,0,0,0-3.18,1A37.05,37.05,0,0,0,20,91.51a2.76,2.76,0,0,0,.82,3.78,2.81,2.81,0,0,0,3.92-.73c.78-1.08,1.48-2.23,2.15-3.38A4.56,4.56,0,0,0,27.24,90Zm12.35,11.79a3.06,3.06,0,0,0-2.92-3,2.89,2.89,0,0,0-2.82,2.72,3.1,3.1,0,0,0,2.93,3A2.86,2.86,0,0,0,39.59,101.78Zm-24.32-16a2.71,2.71,0,0,0-2.8,2.65,3,3,0,0,0,2.89,3,2.85,2.85,0,0,0,2.83-2.69A3,3,0,0,0,15.27,85.75Z"/><path class="cls-1" d="M77.31,43.91c-3.74-8-7.37-16-11-24l-.57-1.3,2.92-1.49c-.39-.76-.73-1.44-1.1-2.18l-1.4.69-1.4.69c-1.35-2-1.72-2-3.13-.09L60.87,16a13.79,13.79,0,0,0-5-1.09c-3.44,0-6.89,0-10.33-.07h-.87V12.31h2.38V9.85H45c.28-1.13.52-2.15.79-3.18a5.23,5.23,0,0,0-.95-4.83A5.85,5.85,0,0,0,41.66,0H40.07a13.12,13.12,0,0,0-2.16,1.06,4.79,4.79,0,0,0-1.93,5c.23,1.22.57,2.43.89,3.74h-2v2.49h2.36v2.47h-.83c-3.46,0-6.93,0-10.39.07a14.1,14.1,0,0,0-4.91,1.07l-.79.31c-.93-2.05-2.33-1.79-3.06.1L14.37,15l-1.11,2.18,2.93,1.5c-.53,1.17-1,2.28-1.55,3.39L4.22,44.76c-.08.17-.19.33-.28.49V46.7a1.75,1.75,0,0,1,.12.32,8.44,8.44,0,0,0,8,7.2q6.69.16,13.37,0a8.48,8.48,0,0,0,7.93-7,4.52,4.52,0,0,0-.29-2.8c-3.37-7.27-6.69-14.56-10-21.84-.61-1.33-1.22-2.66-1.82-4a10.7,10.7,0,0,1,4.53-1.23c3.63-.05,7.27-.06,10.91-.08a4.46,4.46,0,0,1,.52.08v5q0,19.23,0,38.45h2.51V17.32h2.37v43.5h2.52q0-21.34,0-42.71v-.79c.26,0,.42-.05.59-.05,3.2,0,6.41,0,9.61,0a13,13,0,0,1,2.65.26c1.07.22,2.09.59,3.17.91-.19.43-.3.7-.42,1Q54.47,32,48.71,44.6A3.39,3.39,0,0,0,48.36,46a8.48,8.48,0,0,0,8,8.23c4.45.13,8.91.11,13.36,0a8.39,8.39,0,0,0,7.76-5.92A5.69,5.69,0,0,0,77.31,43.91ZM25.57,51.73c-4.45.09-8.91.05-13.36,0a4.83,4.83,0,0,1-1.55-.29,6,6,0,0,1-4.11-4.58H30.86A5.85,5.85,0,0,1,25.57,51.73ZM30,43.65c.09.21.17.43.29.71H7.15c.1-.26.19-.49.29-.72Q12.78,32,18.12,20.37c.12-.26.41-.44.62-.66.21.22.5.4.62.66Q24.72,32,30,43.65ZM42.13,14.74H39.75V12.38h2.38Zm1.34-9c-.26,1.14-.59,2.27-.84,3.42-.11.51-.3.76-.85.69a5,5,0,0,0-.87,0c-1.49,0-1.49,0-1.84-1.43-.22-.88-.45-1.77-.65-2.66a2.5,2.5,0,0,1,1-2.78,2.66,2.66,0,0,1,3,0A2.52,2.52,0,0,1,43.47,5.76Zm8.37,37.9Q57.17,32,62.51,20.38c0-.09.06-.2.12-.25s.37-.37.58-.39.36.23.45.41Q66,25.3,68.39,30.44q3,6.57,6,13.12l.35.81H51.55C51.66,44.1,51.74,43.88,51.84,43.66ZM70,51.73q-6.9.14-13.8,0A5.85,5.85,0,0,1,51,46.9H75.26A5.81,5.81,0,0,1,70,51.73Z"/></g></g></svg>