<svg xmlns="http://www.w3.org/2000/svg" viewBox="0 0 95.9 102"><defs><style>.cls-1{fill:#74b1e1;}</style></defs><title>Asset 16</title><g id="Layer_2" data-name="Layer 2"><g id="Layer_1-2" data-name="Layer 1"><path class="cls-1" d="M93.11,47.41a20.54,20.54,0,0,1,1,18.71A20.28,20.28,0,0,1,80,78.05a19.28,19.28,0,0,1-16.68-3.83c-6.07-4.65-8.82-11-8.18-18.77a19.11,19.11,0,0,1,3.39-9.33,2.77,2.77,0,0,0,.44-2.58c-.91-3.19-1.78-6.4-2.65-9.61l-.93-3.4,0-.07,7.18-1.91-.67-.62A19.15,19.15,0,0,0,53.6,23.6c0-.37,0-.83,0-1.39,0-.26,0-.54,0-.83a23.82,23.82,0,0,1,7.93,3.53,24.41,24.41,0,0,1,2.82,2.26,1.83,1.83,0,0,0,1.9.43c1.35-.38,2.71-.74,4.07-1.09l1.27-.33.82,1.09c.75,1,1.48,2,2.23,3A35.41,35.41,0,0,0,85.3,39.6,21.13,21.13,0,0,1,93.11,47.41ZM90.2,68.74a18.48,18.48,0,0,0,3.34-13.62,19,19,0,0,0-9.07-13.56A62.44,62.44,0,0,1,79.11,38a40.94,40.94,0,0,1-7.65-8.39,1.5,1.5,0,0,0-1.85-.67c-1.5.43-3,.83-4.53,1.22L58,32l3.73,13.63,1.21-.43c.47-.17.93-.34,1.39-.48,6-1.91,11.29-1.82,16.28.26a14.29,14.29,0,0,1,8.13,8.73A14,14,0,0,1,77.53,71.82a2.53,2.53,0,0,0-1.7,1,2.08,2.08,0,0,0-.3,1.61,2.16,2.16,0,0,0,2.27,1.85,3.88,3.88,0,0,0,.57-.05A18.45,18.45,0,0,0,90.2,68.74Zm-9.72-.07A11.77,11.77,0,0,0,86.8,54.82c-1.32-4.62-4.71-7.6-10.07-8.84a9,9,0,0,0-4.13-.24,11.9,11.9,0,0,0-9.13,11.62h0A12,12,0,0,0,66.09,65a12.47,12.47,0,0,0,9.69,4.69A10.54,10.54,0,0,0,80.48,68.67Zm-7,7.59V71.72l-.39-.09c-5.53-1.25-9.22-4.44-11-9.5s-.76-9.9,2.95-14.41L66,46.56l-1.45.35a10.47,10.47,0,0,0-1.43.5,3.36,3.36,0,0,1-2.73.32L60,47.55l-.22.4c-3.67,6.79-3.58,13.41.28,19.66A18.24,18.24,0,0,0,72.9,76.15Z"/><path class="cls-1" d="M73.11,99.94a1.79,1.79,0,0,1-.78,2.06H23.5a1.79,1.79,0,0,1-.77-2.06,8,8,0,0,1,8-7.21c.82,0,1.65,0,2.48,0s1.9,0,2.86,0A3,3,0,0,0,37.82,92c1.65-1.55,3.21-3.11,4.64-4.64a3,3,0,0,0,.77-1.91q0-28.79,0-57.59V26.23a12,12,0,0,0,0-1.82A20.33,20.33,0,0,1,45.77,24V85.84h3.07a5.11,5.11,0,0,0,.53,0l.68-.07V24a19.44,19.44,0,0,1,2.54.38v3.56q0,28.74,0,57.46a3,3,0,0,0,.76,1.9c1.43,1.53,3,3.1,4.64,4.65a3,3,0,0,0,1.8.74c.95,0,1.92,0,2.86,0h1l1.45,0A8,8,0,0,1,73.11,99.94Zm-2.56-.4-.23-.67a5.49,5.49,0,0,0-5.61-3.72q-13.51,0-27,0H31.1c-.29,0-.61,0-.92,0a5.18,5.18,0,0,0-4.61,3.76l-.13.61Zm-30-6.88H55.25l-.86-.86c-.36-.35-.69-.76-1-1.15a5.6,5.6,0,0,0-2.48-2.07,11.15,11.15,0,0,0-3-.4,11.28,11.28,0,0,0-3,.4,5.58,5.58,0,0,0-2.47,2.07c-.33.39-.67.8-1,1.15Z"/><path class="cls-1" d="M70.26,31.83a.9.9,0,0,1-.86.91.85.85,0,0,1-.93-.83.92.92,0,0,1,.24-.68.88.88,0,0,1,.64-.28h0A.93.93,0,0,1,70.26,31.83Z"/><path class="cls-1" d="M67.26,36.53a.86.86,0,0,1,.85.91.93.93,0,0,1-.89.89h0a1,1,0,0,1-.89-.91.88.88,0,0,1,.26-.64.9.9,0,0,1,.64-.26Z"/><path class="cls-1" d="M62,32.79a.91.91,0,1,1-.08,1.81.89.89,0,0,1-.83-.94.94.94,0,0,1,.89-.87Z"/><path class="cls-1" d="M55.94,13.66V16.1H52.65v2.76h0c0,.2,0,.56,0,1.28-.84-.15-1.68-.26-2.54-.33v-3.6H45.76v3.62l-.6.05c-.67.07-1.33.17-2,.29,0-.19,0-.34,0-.46V16.15H39.89v-2.4h3l-.51-2.05c-.27-1.08-.53-2.12-.78-3.15a7.14,7.14,0,0,1,1.11-6A6.27,6.27,0,0,1,47.58,0,6.64,6.64,0,0,1,53,2.43a6.76,6.76,0,0,1,1.2,6.1c-.26,1-.51,2-.77,3.06l-.52,2.07Zm-4-6a4,4,0,0,0-1.57-4.42,4.28,4.28,0,0,0-2.42-.77,4.21,4.21,0,0,0-2.38.75,4,4,0,0,0-1.61,4.41c.18.76.37,1.52.56,2.27.11.45.23.89.34,1.34.56,2.28.76,2.44,3.08,2.44h.34a2.9,2.9,0,0,1,.59,0l.4,0c.86,0,1.38-.49,1.57-1.49s.43-1.88.66-2.79C51.61,8.86,51.77,8.27,51.9,7.68Z"/><path class="cls-1" d="M53.61,21.38c0,.29,0,.57,0,.83,0,.56,0,1,0,1.39l-.5-.11c0-.66,0-1.47,0-2.23Z"/><path class="cls-1" d="M53.11,21.26c0,.76,0,1.57,0,2.23-.16,0-.33-.08-.5-.12,0-.37,0-.78,0-1.17s0-.73,0-1Z"/><path class="cls-1" d="M52.62,20.14v.5a23.82,23.82,0,0,0-2.54-.32v-.51C50.94,19.88,51.78,20,52.62,20.14Z"/><path class="cls-1" d="M52.62,20.64v.52a24.62,24.62,0,0,0-7.35-.28c-.7.07-1.39.18-2.06.31,0-.18,0-.36,0-.52.67-.12,1.34-.22,2-.29a4.9,4.9,0,0,1,.54,0v.15h4.32v-.17A23.82,23.82,0,0,1,52.62,20.64Z"/><path class="cls-1" d="M52.62,21.16c0,.31,0,.65,0,1s0,.8,0,1.17a23.27,23.27,0,0,0-9.33,0c0-.6,0-1.31-.06-2.15v-.06c.67-.13,1.36-.24,2.06-.31A24.62,24.62,0,0,1,52.62,21.16Z"/><path class="cls-1" d="M52.6,23.37v.49a21.79,21.79,0,0,0-2.55-.39v-.41H45.77v.42a20.78,20.78,0,0,0-2.49.38c0-.15,0-.3,0-.46A23.27,23.27,0,0,1,52.6,23.37Z"/><path class="cls-1" d="M52.6,23.86c0,.2,0,.37,0,.52A19.44,19.44,0,0,0,50.05,24v-.53A21.79,21.79,0,0,1,52.6,23.86Z"/><path class="cls-1" d="M45.77,23.48V24a20.33,20.33,0,0,0-2.48.39c0-.17,0-.35,0-.55A20.78,20.78,0,0,1,45.77,23.48Z"/><path class="cls-1" d="M45.76,19.83v.51a4.9,4.9,0,0,0-.54,0c-.69.07-1.36.17-2,.29,0-.18,0-.35,0-.5.65-.12,1.31-.22,2-.29Z"/><path class="cls-1" d="M43.27,23.4l-.5.11c0-.74,0-1.54-.06-2.22l.5-.1v.06C43.23,22.09,43.25,22.8,43.27,23.4Z"/><path class="cls-1" d="M42.71,21.29c0,.68,0,1.48.06,2.22l-.51.12c0-.78,0-1.6,0-2.23Z"/><path class="cls-1" d="M42.21,21.4c0,.63,0,1.45,0,2.23A19.91,19.91,0,0,0,34,27.92l-.7.62,7.24,1.92-2.69,9.78c-.1.4-.24.79-.38,1.18a7.07,7.07,0,0,0-.61,3A6.62,6.62,0,0,0,38,47.17c.21.35.43.7.61,1a20.55,20.55,0,0,1-.09,18.9,20.73,20.73,0,0,1-15.49,11.2A20.27,20.27,0,0,1,2.15,67a20.55,20.55,0,0,1-2-6.87A2,2,0,0,0,0,59.68l0-3.55c.14-.59.26-1.18.39-1.77a29.8,29.8,0,0,1,1-3.88A20.06,20.06,0,0,1,9.89,40l1-.64A30.07,30.07,0,0,0,18,33.94c2-2.27,3.84-4.67,5.65-7l.3-.38c.29-.39.41-.4.78-.3,1.72.5,3.45.95,5.14,1.34a1.83,1.83,0,0,0,1.51-.37A24,24,0,0,1,42.21,21.4Zm-8,24.11L37.92,32l-2.66-.7c-3.17-.83-6.27-1.65-9.37-2.43a1.56,1.56,0,0,0-1.39.65A45.78,45.78,0,0,1,10.9,42C4.37,46,1.41,52.3,2.32,60.16c.93,8,6.57,14.13,14.72,16a5,5,0,0,0,1.07.14,2.08,2.08,0,0,0,2.22-1.74,2.05,2.05,0,0,0-.23-1.61,3.26,3.26,0,0,0-2.23-1.23A13.83,13.83,0,0,1,6.69,60.33a14,14,0,0,1,6.48-14.24C17.76,43.32,22.93,42.63,29,44c1.06.24,2.09.57,3.19.91l1.56.47Zm3.11,19.24A18.09,18.09,0,0,0,36.07,48l-.18-.32-.36.08-.45.13a1.54,1.54,0,0,1-.36.1c-.79-.2-1.58-.44-2.4-.69l-2.5-.74,1,1.26c3.69,4.48,4.66,9.33,2.89,14.39s-5.45,8.24-11,9.48l-.39.09v4.57l.6-.12C29.92,74.78,34.74,70.94,37.32,64.75ZM31.86,61a11.69,11.69,0,0,0-3.53-12.63c-2.25-2.07-4.51-3-6.92-2.8a16.41,16.41,0,0,0-6.48,1.93A12,12,0,0,0,9,60.9c1.05,4.37,5.41,8.81,10.92,8.81h.26l.59,0a10.62,10.62,0,0,0,1.35-.13A11.82,11.82,0,0,0,31.86,61Z"/><path class="cls-1" d="M34,32.79a.91.91,0,0,1,.83,1,.89.89,0,0,1-.29.64.91.91,0,0,1-.68.22.87.87,0,0,1-.79-1,.93.93,0,0,1,.88-.85Z"/><path class="cls-1" d="M28.68,36.52a.9.9,0,0,1,.88.9,1,1,0,0,1-.9.91.88.88,0,0,1-.62-.27,1,1,0,0,1-.27-.69.86.86,0,0,1,.89-.85Z"/><path class="cls-1" d="M27.41,31.84a.87.87,0,0,1-.86.9.93.93,0,0,1-.68-.27.88.88,0,0,1-.26-.63.94.94,0,0,1,.91-.89A.89.89,0,0,1,27.41,31.84Z"/></g></g></svg>