<svg xmlns="http://www.w3.org/2000/svg" viewBox="0 0 98.85 85.79"><defs><style>.cls-1{fill:#74b1e1;}</style></defs><title>Asset 17</title><g id="Layer_2" data-name="Layer 2"><g id="Layer_1-2" data-name="Layer 1"><path class="cls-1" d="M0,33.24a1.84,1.84,0,0,1,2.22-.82c1.52.39,3.08.64,4.61,1,1,.23,1.49.9,1.29,1.78a1.44,1.44,0,0,1-1.88,1c-1.54-.3-3.09-.57-4.61-1a6.51,6.51,0,0,1-1.63-1Z"/><path class="cls-1" d="M84.88,78.63l-8.08-8Q61.33,55.13,45.89,39.67c-.49-.49-.9-1-1.7-.51a1.31,1.31,0,0,1-1,0c-.78-.3-1.22,0-1.73.57-2,2-4,4-6,6,1.22,2.31,1.1,3.11-.7,4.91-.64.63-1.25,1.29-1.92,1.9a2.83,2.83,0,0,1-4.08,0Q21.33,45.13,14,37.7a2.81,2.81,0,0,1,0-4.14c.61-.66,1.26-1.28,1.9-1.92,1.75-1.75,2.64-1.87,4.79-.64,2.17-2.17,4.36-4.34,6.52-6.54a.94.94,0,0,0,.13-.76,3,3,0,0,1,.88-3C30,18.87,31.88,17,33.71,15.18a3,3,0,0,1,3.07-.91,1,1,0,0,0,.83-.23C39.77,11.93,41.9,9.79,44,7.68a11.11,11.11,0,0,1-.71-1.62,2.64,2.64,0,0,1,.73-2.58c.85-.88,1.7-1.76,2.6-2.59a2.8,2.8,0,0,1,4.13,0q7.39,7.34,14.74,14.73a2.82,2.82,0,0,1,0,4.15c-.65.71-1.36,1.37-2,2.06-1.61,1.61-2.66,1.73-4.69.5l-5,5c-.34.34-.66.7-1,1s-.87.89-.55,1.64a1.34,1.34,0,0,1,0,1c-.44.82,0,1.26.53,1.78Q71.91,52,91,71.14l.7.67A4.6,4.6,0,0,1,95.42,71a4.26,4.26,0,0,1,2.41,6.9A95.25,95.25,0,0,1,91,84.76a4.17,4.17,0,0,1-5.5,0,4.32,4.32,0,0,1-1.06-5.41ZM36,17.23,30.17,23c.93.92,1.89,1.86,2.84,2.82s1,1.76.35,2.41-1.5.52-2.35-.35c-.51-.52-1-1.08-1.37-1.53l-6.77,6.7L33.38,43.59,40.06,37l-.64-.66c-1.05-1.05-2.1-2.09-3.13-3.15a1.45,1.45,0,1,1,2-2.07c.21.2.41.41.61.61l4.53,4.54,5.83-5.79ZM47.36,36.84,86.94,76.41l2.53-2.48L49.88,34.34ZM39.6,16.38,50,26.76l6.6-6.52L46.16,9.82Zm6.69-11L60.92,20l2.38-2.29L48.7,3.11ZM16.18,35.52,30.84,50.19l2.28-2.11L18.39,33.31Zm72,47.54a6.79,6.79,0,0,0,1.21-.71c2-2,4-4,6-6a1.46,1.46,0,1,0-2.09-2c-.79.75-1.55,1.53-2.32,2.3-1.23,1.23-2.5,2.41-3.65,3.71A2,2,0,0,0,87,82C87.15,82.39,87.78,82.67,88.22,83.06Z"/><path class="cls-1" d="M11.61,75.5c0-1.17,0-2.26,0-3.34a3.59,3.59,0,0,1,4-4H50.3a3.58,3.58,0,0,1,3.91,3.89v3.4c.5,0,.94,0,1.38,0a3.45,3.45,0,0,1,3.47,3.41c0,1.15,0,2.31,0,3.47a3.39,3.39,0,0,1-3.4,3.36q-15,0-30,0a1.39,1.39,0,0,1-1.57-1.34,1.43,1.43,0,0,1,1.5-1.53c.29,0,.58,0,.87,0H54.81c1.36,0,1.36,0,1.37-1.32,0-.74,0-1.48,0-2.22s-.23-1-.9-.94a5.61,5.61,0,0,1-.58,0H11.1c-1.46,0-1.46,0-1.46,1.44,0,.64,0,1.29,0,1.93-.06.83.27,1.14,1.11,1.13,2.51,0,5,0,7.53,0a3.3,3.3,0,0,1,1,.12,1.29,1.29,0,0,1,1,1.49A1.25,1.25,0,0,1,19,85.72c-3.12,0-6.24.08-9.35,0a3.27,3.27,0,0,1-2.89-3.15c-.06-1.25,0-2.5,0-3.76a3.43,3.43,0,0,1,3.31-3.26C10.56,75.48,11,75.5,11.61,75.5Zm39.71-.06V72.56c0-1.42,0-1.46-1.47-1.46H16c-.26,0-.57-.08-.76,0s-.69.46-.71.72c-.08,1.18,0,2.36,0,3.59Z"/><path class="cls-1" d="M7.47,23.08a7.85,7.85,0,0,1,1.26.76c1.2,1.15,2.38,2.34,3.54,3.53a1.45,1.45,0,1,1-2,2C9,28.22,7.78,27.05,6.66,25.77a2.07,2.07,0,0,1-.34-1.63C6.43,23.74,7,23.46,7.47,23.08Z"/><path class="cls-1" d="M19.12,23.58c0,1-.41,1.56-1.2,1.7a1.26,1.26,0,0,1-1.56-1c-.43-1.87-.82-3.75-1.14-5.64a1.22,1.22,0,0,1,1.07-1.47,1.28,1.28,0,0,1,1.66.93C18.4,20,18.76,21.89,19.12,23.58Z"/></g></g></svg>