<?xml version="1.0" standalone="no"?>
<!DOCTYPE svg PUBLIC "-//W3C//DTD SVG 20010904//EN"
 "http://www.w3.org/TR/2001/REC-SVG-20010904/DTD/svg10.dtd">
<svg version="1.0" xmlns="http://www.w3.org/2000/svg"
 width="300.000000pt" height="300.000000pt" viewBox="0 0 300.000000 300.000000"
 preserveAspectRatio="xMidYMid meet">
<metadata>
Created by potrace 1.14, written by Peter Selinger 2001-2017
</metadata>
<g transform="translate(0.000000,300.000000) scale(0.100000,-0.100000)"
fill="#000000" stroke="none">
<path d="M760 2581 c-1 -58 -1 -1712 0 -1726 0 -7 223 -11 703 -10 l702 0 1
57 1 57 -571 0 c-314 0 -606 1 -648 1 l-78 0 0 835 0 834 -55 -1 -55 -2 0 -45z"/>
<path d="M1089 2622 c-6 -27 -4 -1518 2 -1522 4 -3 172 -4 374 -4 260 1 369 5
374 12 4 7 5 27 3 45 l-4 33 -311 -1 c-172 -1 -316 2 -322 6 -7 5 -10 252 -9
711 0 386 -1 708 -3 715 -5 12 -102 17 -104 5z"/>
<path d="M1409 2606 c-1 -27 -1 -1257 0 -1271 1 -6 24 -11 54 -10 l52 0 3 651
2 651 -55 0 c-49 0 -55 -3 -56 -21z"/>
<path d="M1730 1976 l0 -651 55 0 c42 0 55 3 56 15 1 20 1 1216 0 1256 -1 30
-1 31 -56 31 l-55 0 0 -651z"/>
<path d="M2058 2627 c0 -1 -2 -345 -3 -764 -1 -687 0 -763 14 -764 73 -6 91
-4 95 11 2 8 3 353 3 765 l-2 750 -52 2 c-29 1 -54 1 -55 0z"/>
<path d="M486 688 c-10 -6 -12 -30 -7 -95 1 -10 212 -13 1020 -13 l1020 0 -1
55 c-1 31 -6 55 -12 56 -51 5 -2010 2 -2020 -3z"/>
<path d="M202 363 l3 -58 1280 0 c704 -1 1286 1 1293 3 7 3 12 24 12 58 l0 54
-1295 0 -1296 0 3 -57z"/>
</g>
</svg>
