<svg xmlns="http://www.w3.org/2000/svg" viewBox="0 0 90.81 80.18"><defs><style>.cls-1{fill:#74b1e1;}</style></defs><title>Asset 18</title><g id="Layer_2" data-name="Layer 2"><g id="Layer_1-2" data-name="Layer 1"><path class="cls-1" d="M0,22.73c.24-1.42.4-2.86.73-4.25C2.48,11.27,6.38,5.68,13.11,2.3a21.84,21.84,0,0,1,13-2c8,1.06,14,5.21,18.56,11.65l.52.71c0,.05.09.08.23.22l.76-1.05A26.6,26.6,0,0,1,57.6,2.28c8.07-3.39,16-3.21,23.32,2C86.1,7.9,89,13.13,90.27,19.3a27.75,27.75,0,0,1-3.09,19c-3.29,6.17-7.82,11.38-12.68,16.32-7.58,7.69-15.86,14.62-24,21.7l-3.62,3.14c-1.09.92-1.87,1-2.91,0C34.63,71.34,25,63.45,16.3,54.61A79.83,79.83,0,0,1,5.84,42c-3-4.56-5.21-9.39-5.7-14.89A1.12,1.12,0,0,0,0,26.81ZM45.39,76.06c2.37-2,4.66-4,6.93-6,7.54-6.56,15.17-13,22-20.35,4.15-4.47,8-9.2,10.55-14.81a23.71,23.71,0,0,0,1.74-15.87A19.59,19.59,0,0,0,80,8c-6.41-5.21-13.53-5.59-20.9-2.5-5.42,2.28-9.18,6.43-11.94,11.55a1.83,1.83,0,0,1-3.46,0A26.23,26.23,0,0,0,35.6,7.68a20.65,20.65,0,0,0-17-3.55c-6.87,1.56-11.32,6-13.67,12.53C2.38,23.75,3.44,30.55,7,37.06a61.82,61.82,0,0,0,8.9,12A228.21,228.21,0,0,0,34.21,66.34C37.9,69.56,41.61,72.77,45.39,76.06Z"/><path class="cls-1" d="M38.31,34.07V24.92c0-2.05.51-2.56,2.58-2.56h9.39c1.57,0,2.21.63,2.22,2.2,0,3.12,0,6.25,0,9.5H62c1.57,0,2.19.63,2.19,2.22q0,4.88,0,9.75c0,1.54-.67,2.21-2.22,2.22-2.81,0-5.61,0-8.42,0H52.5v1c0,2.83,0,5.67,0,8.5A1.9,1.9,0,0,1,50.32,60H40.49a1.91,1.91,0,0,1-2.18-2.18c0-3.13,0-6.25,0-9.52H28.92c-1.68,0-2.31-.64-2.31-2.31q0-4.83,0-9.66c0-1.59.62-2.21,2.19-2.22Zm3.55,22.28H49c0-3.2,0-6.33,0-9.46,0-1.51.65-2.17,2.14-2.18h9.5V37.62H51.26C49.59,37.61,49,37,49,35.3V26H41.86V35.3c0,1.67-.64,2.31-2.3,2.32H30.2v7.09h9.24c1.86,0,2.42.57,2.42,2.45Z"/><path class="cls-1" d="M83.71,24.56A24,24,0,0,1,80.2,36.72c-1.43,2.41-3.09,4.68-4.69,7a1.81,1.81,0,0,1-2.67.64,1.84,1.84,0,0,1-.16-2.75A45.46,45.46,0,0,0,78.1,33.1c2.06-4.41,2.78-8.94,1.18-13.66-.26-.75-.61-1.47-.9-2.21a1.77,1.77,0,1,1,3.24-1.4A20.13,20.13,0,0,1,83.71,24.56Z"/><path class="cls-1" d="M75.25,12.76a1.76,1.76,0,0,1,.08-3.51A1.74,1.74,0,0,1,77,11,1.78,1.78,0,0,1,75.25,12.76Z"/></g></g></svg>