<svg xmlns="http://www.w3.org/2000/svg" viewBox="0 0 76.37 87.26"><defs><style>.cls-1{fill:#74b1e1;}</style></defs><title>Asset 20</title><g id="Layer_2" data-name="Layer 2"><g id="Layer_1-2" data-name="Layer 1"><path class="cls-1" d="M68.19,16.37v1.18q0,32.57,0,65.13a4.41,4.41,0,0,1-1.52,3.64,4.28,4.28,0,0,1-2.87.94h-25q-17.1,0-34.19,0c-3,0-4.63-1.63-4.63-4.66q0-4.84,0-9.7c0-1.58.43-2,2-2H8.19V4.82C8.19,1.58,9.78,0,13,0H71.53c3.23,0,4.84,1.6,4.84,4.83s0,6.46,0,9.69c0,1.41-.44,1.85-1.85,1.85ZM65.43,2.82c-.16,0-.4,0-.64,0H12.72c-1.35,0-1.8.45-1.8,1.81q0,32.69,0,65.37c0,.29,0,.58.05.92H57.71c1.95,0,2.3.35,2.3,2.26,0,3.23,0,6.47,0,9.7,0,1.23.49,1.7,1.73,1.71.56,0,1.11,0,1.67,0,1.61,0,2-.4,2-2V2.82ZM57.27,73.7H2.75v.85c0,2.7,0,5.4,0,8.1,0,1.44.46,1.9,1.9,1.9q25.92,0,51.83,0c.29,0,.58,0,.79,0ZM73.59,13.63c0-3.26,0-6.43,0-9.6a1.22,1.22,0,0,0-1.31-1.24c-.78,0-1.56,0-2.34,0-1.32,0-1.74.43-1.74,1.76,0,2.78,0,5.57,0,8.35,0,.24,0,.48.06.75Z"/><path class="cls-1" d="M38.12,65.47H21.23a6.26,6.26,0,0,1-.75,0,1.38,1.38,0,1,1,0-2.75c.44,0,.89,0,1.33,0H55.2c1.39,0,2.07.47,2,1.4s-.67,1.36-2.08,1.36Z"/><path class="cls-1" d="M38.23,46.37H55.78a1.37,1.37,0,1,1,0,2.73q-4.35,0-8.7,0h-26c-.38,0-.88,0-1.12-.17a2.35,2.35,0,0,1-.81-1.31,1.14,1.14,0,0,1,1-1.21,4.8,4.8,0,0,1,1-.06h17Z"/><path class="cls-1" d="M38.11,54.55H21.23a7.61,7.61,0,0,1-.83,0,1.38,1.38,0,0,1-1.3-1.29,1.42,1.42,0,0,1,1.27-1.42,4.17,4.17,0,0,1,.5,0h34.6a2.67,2.67,0,0,1,1,.16,1.33,1.33,0,0,1-.28,2.53,4.69,4.69,0,0,1-.92,0Z"/><path class="cls-1" d="M38.29,57.29H55.42a3.75,3.75,0,0,1,.67,0,1.26,1.26,0,0,1,1.15,1.32A1.24,1.24,0,0,1,56.19,60a3.91,3.91,0,0,1-.91,0H21.11q-2,0-2-1.35c0-.91.65-1.37,2-1.37Z"/><path class="cls-1" d="M43.4,31.29c-.14.06-.16.08-.19.08-2.41.18-2.4.17-3.27-2.11-.57-1.5-.25-1.24-1.8-1.27-1,0-1.9,0-2.84,0a1.1,1.1,0,0,0-.77.54,18.62,18.62,0,0,0-.84,2.26.74.74,0,0,1-.85.6c-.64,0-1.28,0-2.06,0,.12-.36.2-.64.3-.9,1.52-4,3.06-8,4.56-12,.21-.57.49-.84,1.08-.74h.09c1.78,0,1.34-.28,2,1.36,1.45,3.77,2.87,7.54,4.31,11.32C43.2,30.69,43.29,31,43.4,31.29ZM37.23,21.12l-.24,0-1.8,4.95H39Z"/><path class="cls-1" d="M55.85,31.39c-1,0-1.76.05-2.53,0a1.11,1.11,0,0,1-.67-.51c-.81-1.17-1.57-2.36-2.36-3.55-.15-.22-.31-.44-.55-.77-.9,1.36-1.79,2.6-2.57,3.9a1.66,1.66,0,0,1-1.81,1,13,13,0,0,0-1.67,0c.21-.35.35-.6.51-.83C45.44,28.79,46.68,27,48,25.24a.85.85,0,0,0,0-1.17c-1.3-1.81-2.57-3.64-3.85-5.47l-.56-.85c1,0,1.84-.05,2.67,0,.23,0,.45.38.62.62,1,1.42,1.92,2.86,3,4.4.9-1.35,1.8-2.55,2.53-3.85a2.07,2.07,0,0,1,2.34-1.23,9.36,9.36,0,0,0,1.32,0l-.57.89c-1.28,1.83-2.55,3.66-3.85,5.46a.84.84,0,0,0,0,1.17C53,27.22,54.33,29.21,55.85,31.39Z"/><path class="cls-1" d="M38.21,42.28H27.52c-1,0-1.58-.51-1.6-1.32a1.32,1.32,0,0,1,1.37-1.37c.75,0,1.51,0,2.26,0H48.43a5.71,5.71,0,0,1,.83,0,1.26,1.26,0,0,1,1.18,1.29,1.28,1.28,0,0,1-1.12,1.36,3.72,3.72,0,0,1-.67,0Z"/><path class="cls-1" d="M27.32,31.35H24.75V20.08c-1.11,0-2.15,0-3.2,0-.38,0-1.06-.1-1.09-.26a7,7,0,0,1,0-1.89c0-.08.38-.18.58-.18,3.36,0,6.73,0,10.1,0,.48,0,.62.18.62.64,0,2.09.21,1.69-1.63,1.72a17.55,17.55,0,0,1-1.92,0c-.67-.05-.85.21-.85.86,0,3.14,0,6.29,0,9.44C27.36,30.69,27.33,31,27.32,31.35Z"/></g></g></svg>