<svg xmlns="http://www.w3.org/2000/svg" viewBox="0 0 96.95 96.97"><defs><style>.cls-1{fill:#f94848;}</style></defs><title>Asset 21</title><g id="Layer_2" data-name="Layer 2"><g id="Layer_1-2" data-name="Layer 1"><path class="cls-1" d="M0,53.23a5.38,5.38,0,0,0,.2-.51A5.2,5.2,0,0,1,4.77,48.9,5.09,5.09,0,0,1,9.87,52c1.06,2.35,2.05,4.74,3.07,7.12.13.31.29.62.43.92,1-.14,1.21-.65,1.21-1.56,0-9.57,0-19.13,0-28.69V28.61l-4,3c-.5.38-1,.78-1.52,1.13a1.61,1.61,0,0,1-2.27-.34,1.56,1.56,0,0,1,.39-2.26C9.43,28.4,11.71,26.72,14,25L45.78,1.16c2-1.54,3.34-1.55,5.38,0q6.17,4.64,12.34,9.26c.32.24.65.46,1.13.79,0-1,0-1.91,0-2.78a3.25,3.25,0,0,1,3.54-3.53h7.48A3.22,3.22,0,0,1,79.18,8.4c0,4.29,0,8.58,0,12.88a1.55,1.55,0,0,0,.71,1.4c3.28,2.41,6.53,4.86,9.78,7.31a1.62,1.62,0,1,1-1.88,2.62l-.62-.44-3.85-2.9c-.25-.18-.5-.34-.89-.6v1.16c0,9.5,0,19,0,28.5,0,.88.14,1.49,1.2,1.62.08-.16.22-.39.33-.64,1.07-2.49,2.1-5,3.22-7.46a5.14,5.14,0,0,1,9.8,2.38A5,5,0,0,1,96.55,56c-2.25,5-4.45,10-6.85,14.85a18.75,18.75,0,0,1-3.27,4.47c-2.9,3.08-6,6-9,9-.24.24-.53.43-.85.69a4.43,4.43,0,0,1,1,3.3c0,1.45-.08,2.91,0,4.36.12,2-.5,3.5-2.41,4.33H55.87a3.61,3.61,0,0,1-2.54-4c.08-1.61,0-3.22,0-4.83,0-2.64.65-3.49,3.25-4.19-.12-3.81,0-7.63,2-11.14H38.37c2.06,3.54,2.08,7.35,2,11.14,2.6.71,3.24,1.56,3.24,4.19,0,1.61-.07,3.22,0,4.82a3.61,3.61,0,0,1-2.54,4H21.78c-1.91-.82-2.54-2.33-2.42-4.32.09-1.51-.05-3,0-4.54a29.22,29.22,0,0,1,.53-3.06l.37-.1a8.44,8.44,0,0,1-.81-.64l-8.83-8.82a20.44,20.44,0,0,1-4.23-6.2C4.33,64.48,2.15,59.71,0,54.93Zm17.79,5.66a8.77,8.77,0,0,1,5.43,2.49,33.29,33.29,0,0,0,8.91,5.47A24.1,24.1,0,0,1,35.53,69a2.54,2.54,0,0,0,1.15.47q11.79,0,23.58,0A2.32,2.32,0,0,0,61.41,69a25.85,25.85,0,0,1,3.48-2.22,32.18,32.18,0,0,0,8.17-4.88c1.81-1.48,3.57-3,6.12-3.07V57.63c0-9.4-.08-18.81,0-28.21a5.44,5.44,0,0,0-2.54-5.16c-8.53-6.19-16.88-12.61-25.3-18.94-1-.72-1.93-1.41-2.91-2.11-.29.2-.52.36-.74.53Q33.16,14.66,18.57,25.58a1.7,1.7,0,0,0-.8,1.54q0,15.39,0,30.78Zm64.32,4.17a4.13,4.13,0,0,0-5.46.15,37.26,37.26,0,0,1-10.8,6.69A6,6,0,0,0,64,71c-3.94,3.49-4.48,8.07-4.13,12.94a1.75,1.75,0,0,0,.35.07c4.13,0,8.26,0,12.4,0a1.66,1.66,0,0,0,1-.51c3.54-3.51,7.1-7,10.56-10.6a14.71,14.71,0,0,0,2.69-3.73c2.28-4.73,4.43-9.54,6.59-14.33a2.38,2.38,0,0,0,.14-1.37A1.76,1.76,0,0,0,92,52.09,1.85,1.85,0,0,0,90,53.31c-1,2.29-1.88,4.61-2.94,6.87a21.91,21.91,0,0,1-2.85,5.19c-2.93,3.37-6.14,6.51-9.29,9.7a1.56,1.56,0,0,1-2.53-.48,1.73,1.73,0,0,1,.52-2c2.22-2.2,4.44-4.39,6.63-6.62C80.43,65,81.23,64.05,82.11,63.06Zm-67.2,0c.63.75,1.21,1.53,1.89,2.22,2.39,2.43,4.81,4.83,7.22,7.24.92.93,1,1.83.26,2.57s-1.63.63-2.5-.23c-2.31-2.29-4.6-4.59-6.9-6.89a20.89,20.89,0,0,1-4.48-6.62c-1.11-2.61-2.25-5.21-3.35-7.82-.32-.75-.78-1.43-1.61-1.39a3.15,3.15,0,0,0-1.8.75A1.73,1.73,0,0,0,3.5,55c2.13,4.64,4.2,9.31,6.38,13.92a12.72,12.72,0,0,0,2.27,3.34c3.7,3.84,7.48,7.6,11.26,11.36a1.78,1.78,0,0,0,1.17.42c3.88,0,7.76,0,11.64,0,.28,0,.55,0,1-.06a48.45,48.45,0,0,0-.35-5.58c-.71-4.2-2.73-7.46-6.94-9.06a19.85,19.85,0,0,1-3.88-2c-2-1.35-3.93-2.84-5.87-4.31A4.09,4.09,0,0,0,14.91,63.06Zm7.76,30.62H40.3V87.36H22.67Zm34-6.35v6.35h17.6V87.33ZM67.86,8.16c0,1.61,0,3.18,0,4.75a1.84,1.84,0,0,0,.63,1.21c2,1.55,4,3,6,4.55l1.32,1V8.16Z"/><path class="cls-1" d="M55.64,27.24c-1.18-3.74-.56-6.4,2-8.24a6.47,6.47,0,0,1,7.53,0c2.54,1.84,3.16,4.54,2,8.34a26,26,0,0,1,3,.5,8,8,0,0,1,5.76,7.49c0,2,0,4,0,6.06,0,3.15-1.4,4.87-4.61,5.51.56,1.14,1.13,2.24,1.65,3.37a3.21,3.21,0,0,1-2.1,4.57A10.05,10.05,0,0,1,69.5,55c0,1.26,0,2.52,0,3.77.09,2.17-.47,4-2.44,5.18-1.68,1-3.39.83-5.71-.53a4.9,4.9,0,0,1-4.13,1.09,4.76,4.76,0,0,1-3.86-4.45c0-.84,0-1.7,0-2.55V55l-.78-.09a3.2,3.2,0,0,1-2.76-4.58c.51-1.15,1.1-2.26,1.63-3.33l-3.09-1.28a5,5,0,0,1-4.72.87v1.21c0,3.79,0,7.58,0,11.36,0,2.13-.64,3.86-2.6,4.87a4.69,4.69,0,0,1-5.29-.51,14.61,14.61,0,0,1-2.88,1,4.74,4.74,0,0,1-5.38-4.85c0-4,0-8,0-12v-1c-3.34.61-5.81-.84-6.36-3.71A10.07,10.07,0,0,1,21,41c0-1.87,0-3.73,0-5.59a8.07,8.07,0,0,1,7.68-7.87c.38,0,.75,0,1.15,0-1.24-4.15-.6-6.74,2.06-8.57a6.46,6.46,0,0,1,7.45.12c2.54,1.89,3.16,4.59,1.87,8.41a8.28,8.28,0,0,1,7.09,3.08,22.71,22.71,0,0,1,3.37-2.28A22.72,22.72,0,0,1,55.64,27.24ZM30.7,47.62c0,3.88,0,7.76,0,11.65,0,1.39.55,2.11,1.59,2.12s1.63-.69,1.63-2.07c0-2.52,0-5,0-7.57,0-1.58,0-3.16,0-4.74a1.62,1.62,0,0,1,1.61-1.74A1.6,1.6,0,0,1,37.15,47c0,.25,0,.5,0,.75q0,5.73,0,11.46a3.51,3.51,0,0,0,.13,1.12A1.58,1.58,0,0,0,40.35,60a7.24,7.24,0,0,0,0-1V36.25a6.43,6.43,0,0,1,0-.76A1.65,1.65,0,0,1,42,33.94a1.59,1.59,0,0,1,1.59,1.66c0,2.12,0,4.23,0,6.35a1.6,1.6,0,1,0,3.2,0c0-2.21.07-4.42,0-6.63a4.68,4.68,0,0,0-4.65-4.57c-4.42-.06-8.84-.07-13.26,0a4.76,4.76,0,0,0-4.66,4.78c0,2.08,0,4.16,0,6.24,0,1.17.6,1.84,1.57,1.86s1.65-.66,1.65-1.86c0-1.92,0-3.85,0-5.78,0-1.25.63-2,1.62-2s1.6.77,1.6,2C30.7,39.85,30.69,43.74,30.7,47.62Zm39.39,4.07c-1.18-2.37-2.31-4.58-3.39-6.82a3.74,3.74,0,0,1-.4-1.53c0-2.52,0-5.05,0-7.57a2.15,2.15,0,0,1,.27-1.07A1.45,1.45,0,0,1,68.26,34a1.6,1.6,0,0,1,1.23,1.69c0,2.06,0,4.11,0,6.16a1.57,1.57,0,0,0,1.57,1.75,1.59,1.59,0,0,0,1.65-1.78c0-2.11,0-4.23,0-6.34A4.75,4.75,0,0,0,68,30.73c-4.41-.07-8.83-.06-13.25,0a4.6,4.6,0,0,0-4.58,4.11c-.15,2.42-.09,4.86-.06,7.29A1.51,1.51,0,0,0,52,43.6c.86-.12,1.36-.75,1.38-1.86,0-2,0-4,0-6a1.64,1.64,0,0,1,1-1.69c1.13-.5,2.23.3,2.25,1.7,0,2.4,0,4.8,0,7.2a4.51,4.51,0,0,1-.41,1.81c-1,2.05-2,4.07-3,6.1-.12.24-.2.49-.33.79ZM64.62,24.24A3.18,3.18,0,0,0,61.38,21a3.22,3.22,0,0,0,0,6.44A3.18,3.18,0,0,0,64.62,24.24Zm-29,3.23a3.22,3.22,0,0,0,0-6.44,3.22,3.22,0,1,0,0,6.44ZM63.07,55c0,1.74-.06,3.43,0,5.12a1.38,1.38,0,0,0,1.51,1.27,1.41,1.41,0,0,0,1.59-1.31c.11-1.68,0-3.37,0-5.08ZM59.8,55H56.58c0,1.62,0,3.16,0,4.71a1.6,1.6,0,1,0,3.2.08C59.84,58.24,59.8,56.67,59.8,55Z"/><path class="cls-1" d="M36.33,92.1c-1.62,0-2.4-.52-2.39-1.61s.8-1.61,2.41-1.61a7.18,7.18,0,0,1,1,0,1.63,1.63,0,0,1,1.4,1.65,1.6,1.6,0,0,1-1.52,1.52C37,92.12,36.64,92.1,36.33,92.1Z"/><path class="cls-1" d="M60.56,92.1c-1.61,0-2.4-.53-2.38-1.62s.81-1.6,2.42-1.6a6,6,0,0,1,1,.05,1.59,1.59,0,0,1-.14,3.16C61.19,92.12,60.87,92.1,60.56,92.1Z"/></g></g></svg>